G04 MADE WITH FRITZING*
G04 WWW.FRITZING.ORG*
G04 DOUBLE SIDED*
G04 HOLES PLATED*
G04 CONTOUR ON CENTER OF CONTOUR VECTOR*
%ASAXBY*%
%FSLAX23Y23*%
%MOIN*%
%OFA0B0*%
%SFA1.0B1.0*%
%ADD10C,0.047859*%
%ADD11C,0.070000*%
%ADD12C,0.073999*%
%ADD13C,0.080361*%
%ADD14C,0.080375*%
%ADD15C,0.073889*%
%ADD16C,0.075000*%
%ADD17C,0.081000*%
%ADD18C,0.094488*%
%ADD19C,0.078000*%
%ADD20C,0.075433*%
%ADD21R,0.074001X0.074001*%
%ADD22R,0.078000X0.078000*%
%ADD23C,0.024000*%
%ADD24R,0.001000X0.001000*%
%LNCOPPER1*%
G90*
G70*
G54D10*
X1759Y3634D03*
X1958Y4532D03*
X1858Y4532D03*
X1759Y4532D03*
X1659Y4532D03*
X1559Y4532D03*
X1858Y3634D03*
X1958Y3634D03*
X1659Y3634D03*
X1459Y4532D03*
X1359Y4532D03*
X1259Y4532D03*
X1159Y4532D03*
X1060Y4532D03*
X960Y4532D03*
X860Y4532D03*
X760Y4532D03*
X660Y4532D03*
X560Y4532D03*
X1259Y3634D03*
X1159Y3634D03*
X1060Y3634D03*
X960Y3634D03*
X860Y3634D03*
X760Y3634D03*
X660Y3634D03*
X560Y3634D03*
X1559Y3634D03*
X1459Y3634D03*
X1359Y3634D03*
G54D11*
X1560Y2534D03*
X1460Y2534D03*
X1360Y2534D03*
X1260Y2534D03*
X1160Y2534D03*
X1060Y2534D03*
X960Y2534D03*
X860Y2534D03*
X760Y2534D03*
X660Y2534D03*
G54D12*
X860Y5934D03*
X860Y5834D03*
X860Y5734D03*
X860Y5634D03*
G54D13*
X2660Y534D03*
X2560Y534D03*
X2460Y534D03*
X2360Y534D03*
X2553Y1621D03*
X2453Y1621D03*
X3560Y534D03*
X3460Y534D03*
X3360Y534D03*
X3260Y534D03*
X3453Y1621D03*
X3353Y1621D03*
X3660Y4334D03*
G54D14*
X3760Y4334D03*
G54D13*
X2660Y4334D03*
G54D14*
X2760Y4334D03*
G54D15*
X5560Y4134D03*
X5560Y4234D03*
X5560Y4334D03*
X5560Y4434D03*
G54D16*
X760Y4134D03*
X760Y3734D03*
G54D17*
X5060Y3334D03*
X5060Y3234D03*
X5060Y3134D03*
X6640Y3429D03*
X6640Y3247D03*
X6640Y3059D03*
X6642Y2788D03*
X6642Y2605D03*
X6642Y2417D03*
X5060Y2834D03*
X5060Y2734D03*
X5060Y2634D03*
X5060Y2534D03*
G54D18*
X4260Y1834D03*
X4260Y1134D03*
X5860Y1134D03*
X5860Y1834D03*
G54D19*
X3560Y3034D03*
X3560Y2934D03*
X2616Y2529D03*
X2616Y2429D03*
G54D11*
X3660Y2734D03*
X3660Y2634D03*
G54D20*
X3433Y1720D03*
X1537Y3472D03*
X1489Y2416D03*
X2353Y2968D03*
X1657Y3856D03*
X1657Y4312D03*
X3337Y3232D03*
X5257Y2992D03*
X5185Y2848D03*
X4945Y3160D03*
X5065Y1168D03*
X2401Y3256D03*
X2521Y4288D03*
X3145Y2488D03*
G54D21*
X860Y5934D03*
G54D22*
X3560Y3034D03*
X2616Y2529D03*
G54D23*
X1386Y2517D02*
X1393Y2512D01*
D02*
X1393Y2512D02*
X1393Y1480D01*
D02*
X1393Y1480D02*
X2334Y560D01*
D02*
X3564Y2904D02*
X3577Y2776D01*
D02*
X3577Y2776D02*
X3637Y2746D01*
D02*
X2644Y2439D02*
X3577Y2776D01*
D02*
X2732Y4310D02*
X2545Y4144D01*
D02*
X2545Y4144D02*
X2545Y2368D01*
D02*
X2545Y2368D02*
X3145Y2368D01*
D02*
X3145Y2368D02*
X3343Y1657D01*
D02*
X6605Y2780D02*
X5017Y2464D01*
D02*
X5017Y2464D02*
X3174Y2488D01*
D02*
X3223Y530D02*
X2713Y472D01*
D02*
X2713Y472D02*
X2305Y472D01*
D02*
X2305Y472D02*
X1357Y1408D01*
D02*
X1357Y1408D02*
X1263Y2504D01*
D02*
X3439Y1692D02*
X3446Y1658D01*
D02*
X5023Y2735D02*
X3721Y2776D01*
D02*
X3721Y2776D02*
X3625Y3136D01*
D02*
X3625Y3136D02*
X2593Y3136D01*
D02*
X2593Y3136D02*
X2833Y4384D01*
D02*
X2833Y4384D02*
X2617Y4408D01*
D02*
X2617Y4408D02*
X2617Y4384D01*
D02*
X2617Y4384D02*
X1993Y4384D01*
D02*
X1993Y4384D02*
X1275Y3650D01*
D02*
X2512Y4261D02*
X2497Y4216D01*
D02*
X2497Y4216D02*
X2497Y2320D01*
D02*
X2497Y2320D02*
X2569Y2320D01*
D02*
X2569Y2320D02*
X2554Y1659D01*
D02*
X2430Y3256D02*
X2449Y3256D01*
D02*
X2449Y3256D02*
X2453Y1659D01*
D02*
X1642Y3619D02*
X1585Y3568D01*
D02*
X1585Y3568D02*
X1105Y3568D01*
D02*
X1105Y3568D02*
X1105Y3688D01*
D02*
X1105Y3688D02*
X1201Y3688D01*
D02*
X1201Y3688D02*
X1945Y4432D01*
D02*
X1945Y4432D02*
X2569Y4456D01*
D02*
X2569Y4456D02*
X5526Y4336D01*
D02*
X982Y2556D02*
X1729Y3280D01*
D02*
X1729Y3280D02*
X1729Y3616D01*
D02*
X1729Y3616D02*
X1740Y3623D01*
D02*
X865Y5604D02*
X1009Y4576D01*
D02*
X1009Y4576D02*
X1009Y3568D01*
D02*
X1009Y3568D02*
X1057Y3496D01*
D02*
X1057Y3496D02*
X1508Y3474D01*
D02*
X838Y5813D02*
X577Y5560D01*
D02*
X577Y5560D02*
X561Y4554D01*
D02*
X3534Y561D02*
X3505Y592D01*
D02*
X3505Y592D02*
X3193Y592D01*
D02*
X3193Y592D02*
X2698Y538D01*
D02*
X5834Y1134D02*
X4345Y1096D01*
D02*
X4345Y1096D02*
X3591Y556D01*
D02*
X5036Y1165D02*
X4345Y1096D01*
D02*
X4962Y3137D02*
X5167Y2871D01*
D02*
X6673Y3041D02*
X6721Y3016D01*
D02*
X6721Y3016D02*
X6721Y2560D01*
D02*
X6721Y2560D02*
X6660Y2450D01*
D02*
X5882Y1850D02*
X6611Y2395D01*
D02*
X5552Y4101D02*
X5264Y3020D01*
D02*
X3366Y3232D02*
X3889Y3232D01*
D02*
X3889Y3232D02*
X5025Y2846D01*
D02*
X1843Y4515D02*
X1676Y4333D01*
D02*
X1675Y3879D02*
X1825Y4072D01*
D02*
X1825Y4072D02*
X2340Y2994D01*
D02*
X878Y5909D02*
X1845Y4550D01*
D02*
X1517Y2422D02*
X1609Y2440D01*
D02*
X1609Y2440D02*
X1777Y3208D01*
D02*
X1777Y3208D02*
X1801Y3544D01*
D02*
X1801Y3544D02*
X1801Y3688D01*
D02*
X1801Y3688D02*
X1676Y3834D01*
G54D24*
X2653Y4367D02*
X2667Y4367D01*
X2753Y4367D02*
X2767Y4367D01*
X3653Y4367D02*
X3667Y4367D01*
X3753Y4367D02*
X3767Y4367D01*
X2649Y4366D02*
X2670Y4366D01*
X2749Y4366D02*
X2770Y4366D01*
X3649Y4366D02*
X3670Y4366D01*
X3749Y4366D02*
X3770Y4366D01*
X2647Y4365D02*
X2673Y4365D01*
X2747Y4365D02*
X2773Y4365D01*
X3647Y4365D02*
X3673Y4365D01*
X3747Y4365D02*
X3773Y4365D01*
X2645Y4364D02*
X2675Y4364D01*
X2745Y4364D02*
X2775Y4364D01*
X3645Y4364D02*
X3675Y4364D01*
X3745Y4364D02*
X3775Y4364D01*
X2643Y4363D02*
X2677Y4363D01*
X2743Y4363D02*
X2777Y4363D01*
X3643Y4363D02*
X3676Y4363D01*
X3743Y4363D02*
X3776Y4363D01*
X2641Y4362D02*
X2678Y4362D01*
X2741Y4362D02*
X2778Y4362D01*
X3641Y4362D02*
X3678Y4362D01*
X3741Y4362D02*
X3778Y4362D01*
X2640Y4361D02*
X2679Y4361D01*
X2740Y4361D02*
X2779Y4361D01*
X3640Y4361D02*
X3679Y4361D01*
X3740Y4361D02*
X3779Y4361D01*
X2639Y4360D02*
X2681Y4360D01*
X2739Y4360D02*
X2781Y4360D01*
X3639Y4360D02*
X3681Y4360D01*
X3739Y4360D02*
X3781Y4360D01*
X2638Y4359D02*
X2682Y4359D01*
X2738Y4359D02*
X2782Y4359D01*
X3638Y4359D02*
X3682Y4359D01*
X3738Y4359D02*
X3782Y4359D01*
X2637Y4358D02*
X2683Y4358D01*
X2737Y4358D02*
X2783Y4358D01*
X3637Y4358D02*
X3683Y4358D01*
X3737Y4358D02*
X3783Y4358D01*
X2636Y4357D02*
X2684Y4357D01*
X2736Y4357D02*
X2784Y4357D01*
X3636Y4357D02*
X3684Y4357D01*
X3736Y4357D02*
X3784Y4357D01*
X2635Y4356D02*
X2685Y4356D01*
X2735Y4356D02*
X2785Y4356D01*
X3635Y4356D02*
X3685Y4356D01*
X3735Y4356D02*
X3785Y4356D01*
X2634Y4355D02*
X2685Y4355D01*
X2734Y4355D02*
X2785Y4355D01*
X3634Y4355D02*
X3685Y4355D01*
X3734Y4355D02*
X3785Y4355D01*
X2633Y4354D02*
X2686Y4354D01*
X2733Y4354D02*
X2786Y4354D01*
X3633Y4354D02*
X3686Y4354D01*
X3733Y4354D02*
X3786Y4354D01*
X2633Y4353D02*
X2687Y4353D01*
X2732Y4353D02*
X2787Y4353D01*
X3632Y4353D02*
X3687Y4353D01*
X3732Y4353D02*
X3787Y4353D01*
X2632Y4352D02*
X2688Y4352D01*
X2732Y4352D02*
X2788Y4352D01*
X3632Y4352D02*
X3687Y4352D01*
X3732Y4352D02*
X3787Y4352D01*
X2631Y4351D02*
X2656Y4351D01*
X2663Y4351D02*
X2688Y4351D01*
X2731Y4351D02*
X2756Y4351D01*
X2763Y4351D02*
X2788Y4351D01*
X3631Y4351D02*
X3656Y4351D01*
X3663Y4351D02*
X3688Y4351D01*
X3731Y4351D02*
X3756Y4351D01*
X3763Y4351D02*
X3788Y4351D01*
X2631Y4350D02*
X2653Y4350D01*
X2667Y4350D02*
X2689Y4350D01*
X2731Y4350D02*
X2753Y4350D01*
X2767Y4350D02*
X2789Y4350D01*
X3631Y4350D02*
X3653Y4350D01*
X3667Y4350D02*
X3689Y4350D01*
X3731Y4350D02*
X3753Y4350D01*
X3767Y4350D02*
X3789Y4350D01*
X2630Y4349D02*
X2651Y4349D01*
X2668Y4349D02*
X2689Y4349D01*
X2730Y4349D02*
X2751Y4349D01*
X2768Y4349D02*
X2789Y4349D01*
X3630Y4349D02*
X3651Y4349D01*
X3668Y4349D02*
X3689Y4349D01*
X3730Y4349D02*
X3751Y4349D01*
X3768Y4349D02*
X3789Y4349D01*
X2630Y4348D02*
X2649Y4348D01*
X2670Y4348D02*
X2690Y4348D01*
X2730Y4348D02*
X2749Y4348D01*
X2770Y4348D02*
X2790Y4348D01*
X3630Y4348D02*
X3649Y4348D01*
X3670Y4348D02*
X3690Y4348D01*
X3730Y4348D02*
X3749Y4348D01*
X3770Y4348D02*
X3790Y4348D01*
X2629Y4347D02*
X2648Y4347D01*
X2671Y4347D02*
X2690Y4347D01*
X2729Y4347D02*
X2748Y4347D01*
X2771Y4347D02*
X2790Y4347D01*
X3629Y4347D02*
X3648Y4347D01*
X3671Y4347D02*
X3690Y4347D01*
X3729Y4347D02*
X3748Y4347D01*
X3771Y4347D02*
X3790Y4347D01*
X2629Y4346D02*
X2647Y4346D01*
X2672Y4346D02*
X2690Y4346D01*
X2729Y4346D02*
X2747Y4346D01*
X2772Y4346D02*
X2790Y4346D01*
X3629Y4346D02*
X3647Y4346D01*
X3672Y4346D02*
X3690Y4346D01*
X3729Y4346D02*
X3747Y4346D01*
X3772Y4346D02*
X3790Y4346D01*
X2629Y4345D02*
X2646Y4345D01*
X2673Y4345D02*
X2691Y4345D01*
X2729Y4345D02*
X2746Y4345D01*
X2773Y4345D02*
X2791Y4345D01*
X3629Y4345D02*
X3646Y4345D01*
X3673Y4345D02*
X3691Y4345D01*
X3729Y4345D02*
X3746Y4345D01*
X3773Y4345D02*
X3791Y4345D01*
X2628Y4344D02*
X2646Y4344D01*
X2674Y4344D02*
X2691Y4344D01*
X2728Y4344D02*
X2746Y4344D01*
X2774Y4344D02*
X2791Y4344D01*
X3628Y4344D02*
X3645Y4344D01*
X3674Y4344D02*
X3691Y4344D01*
X3728Y4344D02*
X3745Y4344D01*
X3774Y4344D02*
X3791Y4344D01*
X2628Y4343D02*
X2645Y4343D01*
X2675Y4343D02*
X2691Y4343D01*
X2728Y4343D02*
X2745Y4343D01*
X2774Y4343D02*
X2791Y4343D01*
X3628Y4343D02*
X3645Y4343D01*
X3674Y4343D02*
X3691Y4343D01*
X3728Y4343D02*
X3745Y4343D01*
X3774Y4343D02*
X3791Y4343D01*
X2628Y4342D02*
X2644Y4342D01*
X2675Y4342D02*
X2692Y4342D01*
X2728Y4342D02*
X2744Y4342D01*
X2775Y4342D02*
X2792Y4342D01*
X3628Y4342D02*
X3644Y4342D01*
X3675Y4342D02*
X3692Y4342D01*
X3728Y4342D02*
X3744Y4342D01*
X3775Y4342D02*
X3792Y4342D01*
X2628Y4341D02*
X2644Y4341D01*
X2676Y4341D02*
X2692Y4341D01*
X2728Y4341D02*
X2744Y4341D01*
X2776Y4341D02*
X2792Y4341D01*
X3628Y4341D02*
X3644Y4341D01*
X3676Y4341D02*
X3692Y4341D01*
X3728Y4341D02*
X3744Y4341D01*
X3775Y4341D02*
X3792Y4341D01*
X2627Y4340D02*
X2644Y4340D01*
X2676Y4340D02*
X2692Y4340D01*
X2727Y4340D02*
X2744Y4340D01*
X2776Y4340D02*
X2792Y4340D01*
X3627Y4340D02*
X3644Y4340D01*
X3676Y4340D02*
X3692Y4340D01*
X3727Y4340D02*
X3744Y4340D01*
X3776Y4340D02*
X3792Y4340D01*
X2627Y4339D02*
X2643Y4339D01*
X2676Y4339D02*
X2692Y4339D01*
X2727Y4339D02*
X2743Y4339D01*
X2776Y4339D02*
X2792Y4339D01*
X3627Y4339D02*
X3643Y4339D01*
X3676Y4339D02*
X3692Y4339D01*
X3727Y4339D02*
X3743Y4339D01*
X3776Y4339D02*
X3792Y4339D01*
X2627Y4338D02*
X2643Y4338D01*
X2676Y4338D02*
X2692Y4338D01*
X2727Y4338D02*
X2743Y4338D01*
X2776Y4338D02*
X2792Y4338D01*
X3627Y4338D02*
X3643Y4338D01*
X3676Y4338D02*
X3692Y4338D01*
X3727Y4338D02*
X3743Y4338D01*
X3776Y4338D02*
X3792Y4338D01*
X2627Y4337D02*
X2643Y4337D01*
X2677Y4337D02*
X2692Y4337D01*
X2727Y4337D02*
X2743Y4337D01*
X2777Y4337D02*
X2792Y4337D01*
X3627Y4337D02*
X3643Y4337D01*
X3677Y4337D02*
X3692Y4337D01*
X3727Y4337D02*
X3743Y4337D01*
X3777Y4337D02*
X3792Y4337D01*
X2627Y4336D02*
X2643Y4336D01*
X2677Y4336D02*
X2692Y4336D01*
X2727Y4336D02*
X2743Y4336D01*
X2777Y4336D02*
X2792Y4336D01*
X3627Y4336D02*
X3643Y4336D01*
X3677Y4336D02*
X3692Y4336D01*
X3727Y4336D02*
X3743Y4336D01*
X3777Y4336D02*
X3792Y4336D01*
X2627Y4335D02*
X2643Y4335D01*
X2677Y4335D02*
X2692Y4335D01*
X2727Y4335D02*
X2743Y4335D01*
X2777Y4335D02*
X2792Y4335D01*
X3627Y4335D02*
X3643Y4335D01*
X3677Y4335D02*
X3692Y4335D01*
X3727Y4335D02*
X3743Y4335D01*
X3777Y4335D02*
X3792Y4335D01*
X2627Y4334D02*
X2643Y4334D01*
X2677Y4334D02*
X2692Y4334D01*
X2727Y4334D02*
X2743Y4334D01*
X2777Y4334D02*
X2792Y4334D01*
X3627Y4334D02*
X3643Y4334D01*
X3677Y4334D02*
X3692Y4334D01*
X3727Y4334D02*
X3743Y4334D01*
X3777Y4334D02*
X3792Y4334D01*
X2627Y4333D02*
X2643Y4333D01*
X2677Y4333D02*
X2692Y4333D01*
X2727Y4333D02*
X2743Y4333D01*
X2777Y4333D02*
X2792Y4333D01*
X3627Y4333D02*
X3643Y4333D01*
X3677Y4333D02*
X3692Y4333D01*
X3727Y4333D02*
X3743Y4333D01*
X3777Y4333D02*
X3792Y4333D01*
X2627Y4332D02*
X2643Y4332D01*
X2677Y4332D02*
X2692Y4332D01*
X2727Y4332D02*
X2743Y4332D01*
X2777Y4332D02*
X2792Y4332D01*
X3627Y4332D02*
X3643Y4332D01*
X3677Y4332D02*
X3692Y4332D01*
X3727Y4332D02*
X3743Y4332D01*
X3777Y4332D02*
X3792Y4332D01*
X2627Y4331D02*
X2643Y4331D01*
X2676Y4331D02*
X2692Y4331D01*
X2727Y4331D02*
X2743Y4331D01*
X2776Y4331D02*
X2792Y4331D01*
X3627Y4331D02*
X3643Y4331D01*
X3676Y4331D02*
X3692Y4331D01*
X3727Y4331D02*
X3743Y4331D01*
X3776Y4331D02*
X3792Y4331D01*
X2627Y4330D02*
X2643Y4330D01*
X2676Y4330D02*
X2692Y4330D01*
X2727Y4330D02*
X2743Y4330D01*
X2776Y4330D02*
X2792Y4330D01*
X3627Y4330D02*
X3643Y4330D01*
X3676Y4330D02*
X3692Y4330D01*
X3727Y4330D02*
X3743Y4330D01*
X3776Y4330D02*
X3792Y4330D01*
X2628Y4329D02*
X2644Y4329D01*
X2676Y4329D02*
X2692Y4329D01*
X2727Y4329D02*
X2744Y4329D01*
X2776Y4329D02*
X2792Y4329D01*
X3627Y4329D02*
X3644Y4329D01*
X3676Y4329D02*
X3692Y4329D01*
X3727Y4329D02*
X3744Y4329D01*
X3776Y4329D02*
X3792Y4329D01*
X2628Y4328D02*
X2644Y4328D01*
X2675Y4328D02*
X2692Y4328D01*
X2728Y4328D02*
X2744Y4328D01*
X2775Y4328D02*
X2792Y4328D01*
X3628Y4328D02*
X3644Y4328D01*
X3675Y4328D02*
X3692Y4328D01*
X3728Y4328D02*
X3744Y4328D01*
X3775Y4328D02*
X3792Y4328D01*
X2628Y4327D02*
X2645Y4327D01*
X2675Y4327D02*
X2692Y4327D01*
X2728Y4327D02*
X2745Y4327D01*
X2775Y4327D02*
X2792Y4327D01*
X3628Y4327D02*
X3645Y4327D01*
X3675Y4327D02*
X3691Y4327D01*
X3728Y4327D02*
X3744Y4327D01*
X3775Y4327D02*
X3791Y4327D01*
X2628Y4326D02*
X2645Y4326D01*
X2674Y4326D02*
X2691Y4326D01*
X2728Y4326D02*
X2745Y4326D01*
X2774Y4326D02*
X2791Y4326D01*
X3628Y4326D02*
X3645Y4326D01*
X3674Y4326D02*
X3691Y4326D01*
X3728Y4326D02*
X3745Y4326D01*
X3774Y4326D02*
X3791Y4326D01*
X2628Y4325D02*
X2646Y4325D01*
X2674Y4325D02*
X2691Y4325D01*
X2728Y4325D02*
X2746Y4325D01*
X2774Y4325D02*
X2791Y4325D01*
X3628Y4325D02*
X3646Y4325D01*
X3674Y4325D02*
X3691Y4325D01*
X3728Y4325D02*
X3746Y4325D01*
X3774Y4325D02*
X3791Y4325D01*
X2629Y4324D02*
X2647Y4324D01*
X2673Y4324D02*
X2691Y4324D01*
X2729Y4324D02*
X2747Y4324D01*
X2773Y4324D02*
X2791Y4324D01*
X3629Y4324D02*
X3647Y4324D01*
X3673Y4324D02*
X3691Y4324D01*
X3729Y4324D02*
X3747Y4324D01*
X3773Y4324D02*
X3791Y4324D01*
X2629Y4323D02*
X2647Y4323D01*
X2672Y4323D02*
X2690Y4323D01*
X2729Y4323D02*
X2747Y4323D01*
X2772Y4323D02*
X2790Y4323D01*
X3629Y4323D02*
X3647Y4323D01*
X3672Y4323D02*
X3690Y4323D01*
X3729Y4323D02*
X3747Y4323D01*
X3772Y4323D02*
X3790Y4323D01*
X2630Y4322D02*
X2649Y4322D01*
X2671Y4322D02*
X2690Y4322D01*
X2729Y4322D02*
X2749Y4322D01*
X2771Y4322D02*
X2790Y4322D01*
X3629Y4322D02*
X3649Y4322D01*
X3671Y4322D02*
X3690Y4322D01*
X3729Y4322D02*
X3749Y4322D01*
X3771Y4322D02*
X3790Y4322D01*
X2630Y4321D02*
X2650Y4321D01*
X2670Y4321D02*
X2690Y4321D01*
X2730Y4321D02*
X2750Y4321D01*
X2770Y4321D02*
X2789Y4321D01*
X3630Y4321D02*
X3650Y4321D01*
X3670Y4321D02*
X3689Y4321D01*
X3730Y4321D02*
X3750Y4321D01*
X3770Y4321D02*
X3789Y4321D01*
X2630Y4320D02*
X2652Y4320D01*
X2668Y4320D02*
X2689Y4320D01*
X2730Y4320D02*
X2752Y4320D01*
X2768Y4320D02*
X2789Y4320D01*
X3630Y4320D02*
X3651Y4320D01*
X3668Y4320D02*
X3689Y4320D01*
X3730Y4320D02*
X3751Y4320D01*
X3768Y4320D02*
X3789Y4320D01*
X2631Y4319D02*
X2654Y4319D01*
X2666Y4319D02*
X2689Y4319D01*
X2731Y4319D02*
X2754Y4319D01*
X2766Y4319D02*
X2789Y4319D01*
X3631Y4319D02*
X3654Y4319D01*
X3666Y4319D02*
X3688Y4319D01*
X3731Y4319D02*
X3754Y4319D01*
X3766Y4319D02*
X3788Y4319D01*
X2631Y4318D02*
X2688Y4318D01*
X2731Y4318D02*
X2788Y4318D01*
X3631Y4318D02*
X3688Y4318D01*
X3731Y4318D02*
X3788Y4318D01*
X2632Y4317D02*
X2687Y4317D01*
X2732Y4317D02*
X2787Y4317D01*
X3632Y4317D02*
X3687Y4317D01*
X3732Y4317D02*
X3787Y4317D01*
X2633Y4316D02*
X2687Y4316D01*
X2733Y4316D02*
X2787Y4316D01*
X3633Y4316D02*
X3687Y4316D01*
X3733Y4316D02*
X3787Y4316D01*
X2633Y4315D02*
X2686Y4315D01*
X2733Y4315D02*
X2786Y4315D01*
X3633Y4315D02*
X3686Y4315D01*
X3733Y4315D02*
X3786Y4315D01*
X2634Y4314D02*
X2685Y4314D01*
X2734Y4314D02*
X2785Y4314D01*
X3634Y4314D02*
X3685Y4314D01*
X3734Y4314D02*
X3785Y4314D01*
X2635Y4313D02*
X2684Y4313D01*
X2735Y4313D02*
X2784Y4313D01*
X3635Y4313D02*
X3684Y4313D01*
X3735Y4313D02*
X3784Y4313D01*
X2636Y4312D02*
X2684Y4312D01*
X2736Y4312D02*
X2783Y4312D01*
X3636Y4312D02*
X3683Y4312D01*
X3736Y4312D02*
X3783Y4312D01*
X2637Y4311D02*
X2683Y4311D01*
X2737Y4311D02*
X2783Y4311D01*
X3637Y4311D02*
X3683Y4311D01*
X3737Y4311D02*
X3782Y4311D01*
X2638Y4310D02*
X2681Y4310D01*
X2738Y4310D02*
X2781Y4310D01*
X3638Y4310D02*
X3681Y4310D01*
X3738Y4310D02*
X3781Y4310D01*
X2639Y4309D02*
X2680Y4309D01*
X2739Y4309D02*
X2780Y4309D01*
X3639Y4309D02*
X3680Y4309D01*
X3739Y4309D02*
X3780Y4309D01*
X2640Y4308D02*
X2679Y4308D01*
X2740Y4308D02*
X2779Y4308D01*
X3640Y4308D02*
X3679Y4308D01*
X3740Y4308D02*
X3779Y4308D01*
X2642Y4307D02*
X2678Y4307D01*
X2742Y4307D02*
X2778Y4307D01*
X3642Y4307D02*
X3678Y4307D01*
X3742Y4307D02*
X3778Y4307D01*
X2643Y4306D02*
X2676Y4306D01*
X2743Y4306D02*
X2776Y4306D01*
X3643Y4306D02*
X3676Y4306D01*
X3743Y4306D02*
X3776Y4306D01*
X2645Y4305D02*
X2674Y4305D01*
X2745Y4305D02*
X2774Y4305D01*
X3645Y4305D02*
X3674Y4305D01*
X3745Y4305D02*
X3774Y4305D01*
X2647Y4304D02*
X2672Y4304D01*
X2747Y4304D02*
X2772Y4304D01*
X3647Y4304D02*
X3672Y4304D01*
X3747Y4304D02*
X3772Y4304D01*
X2650Y4303D02*
X2669Y4303D01*
X2750Y4303D02*
X2769Y4303D01*
X3650Y4303D02*
X3669Y4303D01*
X3750Y4303D02*
X3769Y4303D01*
X2654Y4302D02*
X2665Y4302D01*
X2754Y4302D02*
X2765Y4302D01*
X3654Y4302D02*
X3665Y4302D01*
X3754Y4302D02*
X3765Y4302D01*
X3654Y2769D02*
X3666Y2769D01*
X3650Y2768D02*
X3669Y2768D01*
X3647Y2767D02*
X3672Y2767D01*
X3645Y2766D02*
X3674Y2766D01*
X3643Y2765D02*
X3676Y2765D01*
X3641Y2764D02*
X3678Y2764D01*
X3640Y2763D02*
X3680Y2763D01*
X3638Y2762D02*
X3681Y2762D01*
X3637Y2761D02*
X3682Y2761D01*
X3636Y2760D02*
X3683Y2760D01*
X3635Y2759D02*
X3684Y2759D01*
X3634Y2758D02*
X3685Y2758D01*
X3633Y2757D02*
X3686Y2757D01*
X3633Y2756D02*
X3687Y2756D01*
X3632Y2755D02*
X3688Y2755D01*
X3631Y2754D02*
X3688Y2754D01*
X3631Y2753D02*
X3689Y2753D01*
X3630Y2752D02*
X3689Y2752D01*
X3629Y2751D02*
X3690Y2751D01*
X3629Y2750D02*
X3690Y2750D01*
X3628Y2749D02*
X3654Y2749D01*
X3665Y2749D02*
X3691Y2749D01*
X3628Y2748D02*
X3652Y2748D01*
X3667Y2748D02*
X3691Y2748D01*
X3628Y2747D02*
X3651Y2747D01*
X3669Y2747D02*
X3692Y2747D01*
X3627Y2746D02*
X3649Y2746D01*
X3670Y2746D02*
X3692Y2746D01*
X3627Y2745D02*
X3648Y2745D01*
X3671Y2745D02*
X3692Y2745D01*
X3627Y2744D02*
X3647Y2744D01*
X3672Y2744D02*
X3693Y2744D01*
X3626Y2743D02*
X3647Y2743D01*
X3673Y2743D02*
X3693Y2743D01*
X3626Y2742D02*
X3646Y2742D01*
X3673Y2742D02*
X3693Y2742D01*
X3626Y2741D02*
X3645Y2741D01*
X3674Y2741D02*
X3693Y2741D01*
X3626Y2740D02*
X3645Y2740D01*
X3674Y2740D02*
X3694Y2740D01*
X3626Y2739D02*
X3645Y2739D01*
X3675Y2739D02*
X3694Y2739D01*
X3625Y2738D02*
X3644Y2738D01*
X3675Y2738D02*
X3694Y2738D01*
X3625Y2737D02*
X3644Y2737D01*
X3675Y2737D02*
X3694Y2737D01*
X3625Y2736D02*
X3644Y2736D01*
X3675Y2736D02*
X3694Y2736D01*
X3625Y2735D02*
X3644Y2735D01*
X3675Y2735D02*
X3694Y2735D01*
X3625Y2734D02*
X3644Y2734D01*
X3675Y2734D02*
X3694Y2734D01*
X3625Y2733D02*
X3644Y2733D01*
X3675Y2733D02*
X3694Y2733D01*
X3625Y2732D02*
X3644Y2732D01*
X3675Y2732D02*
X3694Y2732D01*
X3625Y2731D02*
X3645Y2731D01*
X3675Y2731D02*
X3694Y2731D01*
X3626Y2730D02*
X3645Y2730D01*
X3675Y2730D02*
X3694Y2730D01*
X3626Y2729D02*
X3645Y2729D01*
X3674Y2729D02*
X3694Y2729D01*
X3626Y2728D02*
X3646Y2728D01*
X3674Y2728D02*
X3693Y2728D01*
X3626Y2727D02*
X3646Y2727D01*
X3673Y2727D02*
X3693Y2727D01*
X3626Y2726D02*
X3647Y2726D01*
X3672Y2726D02*
X3693Y2726D01*
X3627Y2725D02*
X3648Y2725D01*
X3672Y2725D02*
X3693Y2725D01*
X3627Y2724D02*
X3649Y2724D01*
X3671Y2724D02*
X3692Y2724D01*
X3627Y2723D02*
X3650Y2723D01*
X3670Y2723D02*
X3692Y2723D01*
X3628Y2722D02*
X3651Y2722D01*
X3668Y2722D02*
X3692Y2722D01*
X3628Y2721D02*
X3653Y2721D01*
X3667Y2721D02*
X3691Y2721D01*
X3629Y2720D02*
X3656Y2720D01*
X3664Y2720D02*
X3691Y2720D01*
X3629Y2719D02*
X3690Y2719D01*
X3630Y2718D02*
X3690Y2718D01*
X3630Y2717D02*
X3689Y2717D01*
X3631Y2716D02*
X3689Y2716D01*
X3631Y2715D02*
X3688Y2715D01*
X3632Y2714D02*
X3687Y2714D01*
X3633Y2713D02*
X3687Y2713D01*
X3634Y2712D02*
X3686Y2712D01*
X3634Y2711D02*
X3685Y2711D01*
X3635Y2710D02*
X3684Y2710D01*
X3637Y2709D02*
X3683Y2709D01*
X3638Y2708D02*
X3682Y2708D01*
X3639Y2707D02*
X3680Y2707D01*
X3640Y2706D02*
X3679Y2706D01*
X3642Y2705D02*
X3677Y2705D01*
X3644Y2704D02*
X3676Y2704D01*
X3646Y2703D02*
X3673Y2703D01*
X3648Y2702D02*
X3671Y2702D01*
X3651Y2701D02*
X3668Y2701D01*
X3656Y2700D02*
X3663Y2700D01*
X3654Y2669D02*
X3666Y2669D01*
X3650Y2668D02*
X3669Y2668D01*
X3647Y2667D02*
X3672Y2667D01*
X3645Y2666D02*
X3674Y2666D01*
X3643Y2665D02*
X3676Y2665D01*
X3641Y2664D02*
X3678Y2664D01*
X3640Y2663D02*
X3680Y2663D01*
X3638Y2662D02*
X3681Y2662D01*
X3637Y2661D02*
X3682Y2661D01*
X3636Y2660D02*
X3683Y2660D01*
X3635Y2659D02*
X3684Y2659D01*
X3634Y2658D02*
X3685Y2658D01*
X3633Y2657D02*
X3686Y2657D01*
X3633Y2656D02*
X3687Y2656D01*
X3632Y2655D02*
X3688Y2655D01*
X3631Y2654D02*
X3688Y2654D01*
X3631Y2653D02*
X3689Y2653D01*
X3630Y2652D02*
X3689Y2652D01*
X3629Y2651D02*
X3690Y2651D01*
X3629Y2650D02*
X3690Y2650D01*
X3628Y2649D02*
X3654Y2649D01*
X3665Y2649D02*
X3691Y2649D01*
X3628Y2648D02*
X3652Y2648D01*
X3667Y2648D02*
X3691Y2648D01*
X3628Y2647D02*
X3651Y2647D01*
X3669Y2647D02*
X3692Y2647D01*
X3627Y2646D02*
X3649Y2646D01*
X3670Y2646D02*
X3692Y2646D01*
X3627Y2645D02*
X3648Y2645D01*
X3671Y2645D02*
X3692Y2645D01*
X3627Y2644D02*
X3647Y2644D01*
X3672Y2644D02*
X3693Y2644D01*
X3626Y2643D02*
X3647Y2643D01*
X3673Y2643D02*
X3693Y2643D01*
X3626Y2642D02*
X3646Y2642D01*
X3673Y2642D02*
X3693Y2642D01*
X3626Y2641D02*
X3645Y2641D01*
X3674Y2641D02*
X3693Y2641D01*
X3626Y2640D02*
X3645Y2640D01*
X3674Y2640D02*
X3694Y2640D01*
X3626Y2639D02*
X3645Y2639D01*
X3675Y2639D02*
X3694Y2639D01*
X3625Y2638D02*
X3644Y2638D01*
X3675Y2638D02*
X3694Y2638D01*
X3625Y2637D02*
X3644Y2637D01*
X3675Y2637D02*
X3694Y2637D01*
X3625Y2636D02*
X3644Y2636D01*
X3675Y2636D02*
X3694Y2636D01*
X3625Y2635D02*
X3644Y2635D01*
X3675Y2635D02*
X3694Y2635D01*
X3625Y2634D02*
X3644Y2634D01*
X3675Y2634D02*
X3694Y2634D01*
X3625Y2633D02*
X3644Y2633D01*
X3675Y2633D02*
X3694Y2633D01*
X3625Y2632D02*
X3644Y2632D01*
X3675Y2632D02*
X3694Y2632D01*
X3625Y2631D02*
X3645Y2631D01*
X3675Y2631D02*
X3694Y2631D01*
X3626Y2630D02*
X3645Y2630D01*
X3675Y2630D02*
X3694Y2630D01*
X3626Y2629D02*
X3645Y2629D01*
X3674Y2629D02*
X3694Y2629D01*
X3626Y2628D02*
X3646Y2628D01*
X3674Y2628D02*
X3693Y2628D01*
X3626Y2627D02*
X3646Y2627D01*
X3673Y2627D02*
X3693Y2627D01*
X3626Y2626D02*
X3647Y2626D01*
X3672Y2626D02*
X3693Y2626D01*
X3627Y2625D02*
X3648Y2625D01*
X3672Y2625D02*
X3693Y2625D01*
X3627Y2624D02*
X3649Y2624D01*
X3671Y2624D02*
X3692Y2624D01*
X3627Y2623D02*
X3650Y2623D01*
X3670Y2623D02*
X3692Y2623D01*
X3628Y2622D02*
X3651Y2622D01*
X3668Y2622D02*
X3692Y2622D01*
X3628Y2621D02*
X3653Y2621D01*
X3667Y2621D02*
X3691Y2621D01*
X3629Y2620D02*
X3656Y2620D01*
X3663Y2620D02*
X3691Y2620D01*
X3629Y2619D02*
X3690Y2619D01*
X3630Y2618D02*
X3690Y2618D01*
X3630Y2617D02*
X3689Y2617D01*
X3631Y2616D02*
X3689Y2616D01*
X3631Y2615D02*
X3688Y2615D01*
X3632Y2614D02*
X3687Y2614D01*
X3633Y2613D02*
X3687Y2613D01*
X3634Y2612D02*
X3686Y2612D01*
X3634Y2611D02*
X3685Y2611D01*
X3635Y2610D02*
X3684Y2610D01*
X3637Y2609D02*
X3683Y2609D01*
X3638Y2608D02*
X3682Y2608D01*
X3639Y2607D02*
X3680Y2607D01*
X3640Y2606D02*
X3679Y2606D01*
X3642Y2605D02*
X3677Y2605D01*
X3644Y2604D02*
X3676Y2604D01*
X3646Y2603D02*
X3673Y2603D01*
X3648Y2602D02*
X3671Y2602D01*
X3651Y2601D02*
X3668Y2601D01*
X3656Y2600D02*
X3663Y2600D01*
X4213Y1881D02*
X4306Y1881D01*
X4213Y1880D02*
X4306Y1880D01*
X4213Y1879D02*
X4306Y1879D01*
X4213Y1878D02*
X4306Y1878D01*
X4213Y1877D02*
X4306Y1877D01*
X4213Y1876D02*
X4306Y1876D01*
X4213Y1875D02*
X4306Y1875D01*
X4213Y1874D02*
X4306Y1874D01*
X4213Y1873D02*
X4306Y1873D01*
X4213Y1872D02*
X4306Y1872D01*
X4213Y1871D02*
X4306Y1871D01*
X4213Y1870D02*
X4306Y1870D01*
X4213Y1869D02*
X4306Y1869D01*
X4213Y1868D02*
X4306Y1868D01*
X4213Y1867D02*
X4306Y1867D01*
X4213Y1866D02*
X4306Y1866D01*
X4213Y1865D02*
X4306Y1865D01*
X4213Y1864D02*
X4306Y1864D01*
X4213Y1863D02*
X4306Y1863D01*
X4213Y1862D02*
X4306Y1862D01*
X4213Y1861D02*
X4306Y1861D01*
X4213Y1860D02*
X4306Y1860D01*
X4213Y1859D02*
X4306Y1859D01*
X4213Y1858D02*
X4306Y1858D01*
X4213Y1857D02*
X4306Y1857D01*
X4213Y1856D02*
X4306Y1856D01*
X4213Y1855D02*
X4306Y1855D01*
X4213Y1854D02*
X4255Y1854D01*
X4264Y1854D02*
X4306Y1854D01*
X4213Y1853D02*
X4252Y1853D01*
X4267Y1853D02*
X4306Y1853D01*
X4213Y1852D02*
X4250Y1852D01*
X4269Y1852D02*
X4306Y1852D01*
X4213Y1851D02*
X4248Y1851D01*
X4271Y1851D02*
X4306Y1851D01*
X4213Y1850D02*
X4247Y1850D01*
X4272Y1850D02*
X4306Y1850D01*
X4213Y1849D02*
X4246Y1849D01*
X4274Y1849D02*
X4306Y1849D01*
X4213Y1848D02*
X4245Y1848D01*
X4275Y1848D02*
X4306Y1848D01*
X4213Y1847D02*
X4244Y1847D01*
X4275Y1847D02*
X4306Y1847D01*
X4213Y1846D02*
X4243Y1846D01*
X4276Y1846D02*
X4306Y1846D01*
X4213Y1845D02*
X4242Y1845D01*
X4277Y1845D02*
X4306Y1845D01*
X4213Y1844D02*
X4242Y1844D01*
X4277Y1844D02*
X4306Y1844D01*
X4213Y1843D02*
X4241Y1843D01*
X4278Y1843D02*
X4306Y1843D01*
X4213Y1842D02*
X4241Y1842D01*
X4278Y1842D02*
X4306Y1842D01*
X4213Y1841D02*
X4241Y1841D01*
X4279Y1841D02*
X4306Y1841D01*
X4213Y1840D02*
X4240Y1840D01*
X4279Y1840D02*
X4306Y1840D01*
X4213Y1839D02*
X4240Y1839D01*
X4279Y1839D02*
X4306Y1839D01*
X4213Y1838D02*
X4240Y1838D01*
X4279Y1838D02*
X4306Y1838D01*
X4213Y1837D02*
X4240Y1837D01*
X4280Y1837D02*
X4306Y1837D01*
X4213Y1836D02*
X4240Y1836D01*
X4280Y1836D02*
X4306Y1836D01*
X4213Y1835D02*
X4239Y1835D01*
X4280Y1835D02*
X4306Y1835D01*
X4213Y1834D02*
X4240Y1834D01*
X4280Y1834D02*
X4306Y1834D01*
X4213Y1833D02*
X4240Y1833D01*
X4280Y1833D02*
X4306Y1833D01*
X4213Y1832D02*
X4240Y1832D01*
X4280Y1832D02*
X4306Y1832D01*
X4213Y1831D02*
X4240Y1831D01*
X4279Y1831D02*
X4306Y1831D01*
X4213Y1830D02*
X4240Y1830D01*
X4279Y1830D02*
X4306Y1830D01*
X4213Y1829D02*
X4240Y1829D01*
X4279Y1829D02*
X4306Y1829D01*
X4213Y1828D02*
X4241Y1828D01*
X4279Y1828D02*
X4306Y1828D01*
X4213Y1827D02*
X4241Y1827D01*
X4278Y1827D02*
X4306Y1827D01*
X4213Y1826D02*
X4242Y1826D01*
X4278Y1826D02*
X4306Y1826D01*
X4213Y1825D02*
X4242Y1825D01*
X4277Y1825D02*
X4306Y1825D01*
X4213Y1824D02*
X4243Y1824D01*
X4277Y1824D02*
X4306Y1824D01*
X4213Y1823D02*
X4243Y1823D01*
X4276Y1823D02*
X4306Y1823D01*
X4213Y1822D02*
X4244Y1822D01*
X4275Y1822D02*
X4306Y1822D01*
X4213Y1821D02*
X4245Y1821D01*
X4274Y1821D02*
X4306Y1821D01*
X4213Y1820D02*
X4246Y1820D01*
X4273Y1820D02*
X4306Y1820D01*
X4213Y1819D02*
X4247Y1819D01*
X4272Y1819D02*
X4306Y1819D01*
X4213Y1818D02*
X4249Y1818D01*
X4270Y1818D02*
X4306Y1818D01*
X4213Y1817D02*
X4251Y1817D01*
X4268Y1817D02*
X4306Y1817D01*
X4213Y1816D02*
X4253Y1816D01*
X4266Y1816D02*
X4306Y1816D01*
X4213Y1815D02*
X4306Y1815D01*
X4213Y1814D02*
X4306Y1814D01*
X4213Y1813D02*
X4306Y1813D01*
X4213Y1812D02*
X4306Y1812D01*
X4213Y1811D02*
X4306Y1811D01*
X4213Y1810D02*
X4306Y1810D01*
X4213Y1809D02*
X4306Y1809D01*
X4213Y1808D02*
X4306Y1808D01*
X4213Y1807D02*
X4306Y1807D01*
X4213Y1806D02*
X4306Y1806D01*
X4213Y1805D02*
X4306Y1805D01*
X4213Y1804D02*
X4306Y1804D01*
X4213Y1803D02*
X4306Y1803D01*
X4213Y1802D02*
X4306Y1802D01*
X4213Y1801D02*
X4306Y1801D01*
X4213Y1800D02*
X4306Y1800D01*
X4213Y1799D02*
X4306Y1799D01*
X4213Y1798D02*
X4306Y1798D01*
X4213Y1797D02*
X4306Y1797D01*
X4213Y1796D02*
X4306Y1796D01*
X4213Y1795D02*
X4306Y1795D01*
X4213Y1794D02*
X4306Y1794D01*
X4213Y1793D02*
X4306Y1793D01*
X4213Y1792D02*
X4306Y1792D01*
X4213Y1791D02*
X4306Y1791D01*
X4213Y1790D02*
X4306Y1790D01*
X4213Y1789D02*
X4306Y1789D01*
X4213Y1788D02*
X4306Y1788D01*
X2446Y1654D02*
X2459Y1654D01*
X2546Y1654D02*
X2559Y1654D01*
X3346Y1654D02*
X3359Y1654D01*
X3446Y1654D02*
X3459Y1654D01*
X2443Y1653D02*
X2463Y1653D01*
X2543Y1653D02*
X2563Y1653D01*
X3343Y1653D02*
X3363Y1653D01*
X3443Y1653D02*
X3463Y1653D01*
X2440Y1652D02*
X2466Y1652D01*
X2540Y1652D02*
X2566Y1652D01*
X3340Y1652D02*
X3366Y1652D01*
X3440Y1652D02*
X3466Y1652D01*
X2438Y1651D02*
X2468Y1651D01*
X2538Y1651D02*
X2568Y1651D01*
X3338Y1651D02*
X3368Y1651D01*
X3438Y1651D02*
X3468Y1651D01*
X2436Y1650D02*
X2469Y1650D01*
X2536Y1650D02*
X2569Y1650D01*
X3336Y1650D02*
X3369Y1650D01*
X3436Y1650D02*
X3469Y1650D01*
X2435Y1649D02*
X2471Y1649D01*
X2535Y1649D02*
X2571Y1649D01*
X3334Y1649D02*
X3371Y1649D01*
X3434Y1649D02*
X3471Y1649D01*
X2433Y1648D02*
X2472Y1648D01*
X2533Y1648D02*
X2572Y1648D01*
X3333Y1648D02*
X3372Y1648D01*
X3433Y1648D02*
X3472Y1648D01*
X2432Y1647D02*
X2474Y1647D01*
X2532Y1647D02*
X2574Y1647D01*
X3332Y1647D02*
X3374Y1647D01*
X3432Y1647D02*
X3474Y1647D01*
X2431Y1646D02*
X2475Y1646D01*
X2531Y1646D02*
X2575Y1646D01*
X3331Y1646D02*
X3375Y1646D01*
X3431Y1646D02*
X3475Y1646D01*
X2430Y1645D02*
X2476Y1645D01*
X2530Y1645D02*
X2576Y1645D01*
X3330Y1645D02*
X3376Y1645D01*
X3430Y1645D02*
X3476Y1645D01*
X2429Y1644D02*
X2477Y1644D01*
X2529Y1644D02*
X2577Y1644D01*
X3329Y1644D02*
X3377Y1644D01*
X3429Y1644D02*
X3477Y1644D01*
X2428Y1643D02*
X2478Y1643D01*
X2528Y1643D02*
X2578Y1643D01*
X3328Y1643D02*
X3378Y1643D01*
X3428Y1643D02*
X3478Y1643D01*
X2427Y1642D02*
X2478Y1642D01*
X2527Y1642D02*
X2578Y1642D01*
X3327Y1642D02*
X3378Y1642D01*
X3427Y1642D02*
X3478Y1642D01*
X2426Y1641D02*
X2479Y1641D01*
X2526Y1641D02*
X2579Y1641D01*
X3326Y1641D02*
X3379Y1641D01*
X3426Y1641D02*
X3479Y1641D01*
X2426Y1640D02*
X2480Y1640D01*
X2526Y1640D02*
X2580Y1640D01*
X3326Y1640D02*
X3380Y1640D01*
X3426Y1640D02*
X3480Y1640D01*
X2425Y1639D02*
X2481Y1639D01*
X2525Y1639D02*
X2581Y1639D01*
X3325Y1639D02*
X3380Y1639D01*
X3425Y1639D02*
X3480Y1639D01*
X2424Y1638D02*
X2451Y1638D01*
X2455Y1638D02*
X2481Y1638D01*
X2524Y1638D02*
X2551Y1638D01*
X2555Y1638D02*
X2581Y1638D01*
X3324Y1638D02*
X3351Y1638D01*
X3355Y1638D02*
X3381Y1638D01*
X3424Y1638D02*
X3451Y1638D01*
X3455Y1638D02*
X3481Y1638D01*
X2424Y1637D02*
X2446Y1637D01*
X2459Y1637D02*
X2482Y1637D01*
X2524Y1637D02*
X2546Y1637D01*
X2559Y1637D02*
X2582Y1637D01*
X3324Y1637D02*
X3346Y1637D01*
X3359Y1637D02*
X3382Y1637D01*
X3424Y1637D02*
X3446Y1637D01*
X3459Y1637D02*
X3482Y1637D01*
X2423Y1636D02*
X2444Y1636D01*
X2461Y1636D02*
X2482Y1636D01*
X2523Y1636D02*
X2544Y1636D01*
X2561Y1636D02*
X2582Y1636D01*
X3323Y1636D02*
X3344Y1636D01*
X3361Y1636D02*
X3382Y1636D01*
X3423Y1636D02*
X3444Y1636D01*
X3461Y1636D02*
X3482Y1636D01*
X2423Y1635D02*
X2443Y1635D01*
X2463Y1635D02*
X2483Y1635D01*
X2523Y1635D02*
X2543Y1635D01*
X2563Y1635D02*
X2583Y1635D01*
X3323Y1635D02*
X3343Y1635D01*
X3363Y1635D02*
X3383Y1635D01*
X3423Y1635D02*
X3443Y1635D01*
X3463Y1635D02*
X3483Y1635D01*
X2422Y1634D02*
X2441Y1634D01*
X2464Y1634D02*
X2483Y1634D01*
X2522Y1634D02*
X2541Y1634D01*
X2564Y1634D02*
X2583Y1634D01*
X3322Y1634D02*
X3341Y1634D01*
X3364Y1634D02*
X3383Y1634D01*
X3422Y1634D02*
X3441Y1634D01*
X3464Y1634D02*
X3483Y1634D01*
X2422Y1633D02*
X2440Y1633D01*
X2465Y1633D02*
X2483Y1633D01*
X2522Y1633D02*
X2540Y1633D01*
X2565Y1633D02*
X2583Y1633D01*
X3322Y1633D02*
X3340Y1633D01*
X3365Y1633D02*
X3383Y1633D01*
X3422Y1633D02*
X3440Y1633D01*
X3465Y1633D02*
X3483Y1633D01*
X2422Y1632D02*
X2439Y1632D01*
X2466Y1632D02*
X2484Y1632D01*
X2522Y1632D02*
X2539Y1632D01*
X2566Y1632D02*
X2584Y1632D01*
X3322Y1632D02*
X3339Y1632D01*
X3366Y1632D02*
X3384Y1632D01*
X3422Y1632D02*
X3439Y1632D01*
X3466Y1632D02*
X3484Y1632D01*
X2421Y1631D02*
X2439Y1631D01*
X2467Y1631D02*
X2484Y1631D01*
X2521Y1631D02*
X2539Y1631D01*
X2567Y1631D02*
X2584Y1631D01*
X3321Y1631D02*
X3339Y1631D01*
X3367Y1631D02*
X3384Y1631D01*
X3421Y1631D02*
X3439Y1631D01*
X3467Y1631D02*
X3484Y1631D01*
X2421Y1630D02*
X2438Y1630D01*
X2468Y1630D02*
X2484Y1630D01*
X2521Y1630D02*
X2538Y1630D01*
X2567Y1630D02*
X2584Y1630D01*
X3321Y1630D02*
X3338Y1630D01*
X3367Y1630D02*
X3384Y1630D01*
X3421Y1630D02*
X3438Y1630D01*
X3467Y1630D02*
X3484Y1630D01*
X2421Y1629D02*
X2437Y1629D01*
X2468Y1629D02*
X2485Y1629D01*
X2521Y1629D02*
X2537Y1629D01*
X2568Y1629D02*
X2585Y1629D01*
X3321Y1629D02*
X3337Y1629D01*
X3368Y1629D02*
X3385Y1629D01*
X3421Y1629D02*
X3437Y1629D01*
X3468Y1629D02*
X3485Y1629D01*
X2421Y1628D02*
X2437Y1628D01*
X2469Y1628D02*
X2485Y1628D01*
X2521Y1628D02*
X2537Y1628D01*
X2569Y1628D02*
X2585Y1628D01*
X3321Y1628D02*
X3337Y1628D01*
X3369Y1628D02*
X3385Y1628D01*
X3421Y1628D02*
X3437Y1628D01*
X3468Y1628D02*
X3485Y1628D01*
X2420Y1627D02*
X2437Y1627D01*
X2469Y1627D02*
X2485Y1627D01*
X2521Y1627D02*
X2537Y1627D01*
X2569Y1627D02*
X2585Y1627D01*
X3320Y1627D02*
X3337Y1627D01*
X3369Y1627D02*
X3385Y1627D01*
X3420Y1627D02*
X3437Y1627D01*
X3469Y1627D02*
X3485Y1627D01*
X2420Y1626D02*
X2436Y1626D01*
X2469Y1626D02*
X2485Y1626D01*
X2520Y1626D02*
X2536Y1626D01*
X2569Y1626D02*
X2585Y1626D01*
X3320Y1626D02*
X3336Y1626D01*
X3369Y1626D02*
X3385Y1626D01*
X3420Y1626D02*
X3436Y1626D01*
X3469Y1626D02*
X3485Y1626D01*
X2420Y1625D02*
X2436Y1625D01*
X2469Y1625D02*
X2485Y1625D01*
X2520Y1625D02*
X2536Y1625D01*
X2569Y1625D02*
X2585Y1625D01*
X3320Y1625D02*
X3336Y1625D01*
X3369Y1625D02*
X3385Y1625D01*
X3420Y1625D02*
X3436Y1625D01*
X3469Y1625D02*
X3485Y1625D01*
X2420Y1624D02*
X2436Y1624D01*
X2470Y1624D02*
X2485Y1624D01*
X2520Y1624D02*
X2536Y1624D01*
X2570Y1624D02*
X2585Y1624D01*
X3320Y1624D02*
X3336Y1624D01*
X3370Y1624D02*
X3385Y1624D01*
X3420Y1624D02*
X3436Y1624D01*
X3470Y1624D02*
X3485Y1624D01*
X2420Y1623D02*
X2436Y1623D01*
X2470Y1623D02*
X2485Y1623D01*
X2520Y1623D02*
X2536Y1623D01*
X2570Y1623D02*
X2585Y1623D01*
X3320Y1623D02*
X3336Y1623D01*
X3370Y1623D02*
X3385Y1623D01*
X3420Y1623D02*
X3436Y1623D01*
X3470Y1623D02*
X3485Y1623D01*
X2420Y1622D02*
X2436Y1622D01*
X2470Y1622D02*
X2485Y1622D01*
X2520Y1622D02*
X2536Y1622D01*
X2570Y1622D02*
X2585Y1622D01*
X3320Y1622D02*
X3336Y1622D01*
X3370Y1622D02*
X3385Y1622D01*
X3420Y1622D02*
X3436Y1622D01*
X3470Y1622D02*
X3485Y1622D01*
X2420Y1621D02*
X2436Y1621D01*
X2470Y1621D02*
X2485Y1621D01*
X2520Y1621D02*
X2536Y1621D01*
X2570Y1621D02*
X2585Y1621D01*
X3320Y1621D02*
X3336Y1621D01*
X3370Y1621D02*
X3385Y1621D01*
X3420Y1621D02*
X3436Y1621D01*
X3470Y1621D02*
X3485Y1621D01*
X2420Y1620D02*
X2436Y1620D01*
X2470Y1620D02*
X2485Y1620D01*
X2520Y1620D02*
X2536Y1620D01*
X2570Y1620D02*
X2585Y1620D01*
X3320Y1620D02*
X3336Y1620D01*
X3370Y1620D02*
X3385Y1620D01*
X3420Y1620D02*
X3436Y1620D01*
X3470Y1620D02*
X3485Y1620D01*
X2420Y1619D02*
X2436Y1619D01*
X2470Y1619D02*
X2485Y1619D01*
X2520Y1619D02*
X2536Y1619D01*
X2570Y1619D02*
X2585Y1619D01*
X3320Y1619D02*
X3336Y1619D01*
X3370Y1619D02*
X3385Y1619D01*
X3420Y1619D02*
X3436Y1619D01*
X3470Y1619D02*
X3485Y1619D01*
X2420Y1618D02*
X2436Y1618D01*
X2469Y1618D02*
X2485Y1618D01*
X2520Y1618D02*
X2536Y1618D01*
X2569Y1618D02*
X2585Y1618D01*
X3320Y1618D02*
X3336Y1618D01*
X3369Y1618D02*
X3385Y1618D01*
X3420Y1618D02*
X3436Y1618D01*
X3469Y1618D02*
X3485Y1618D01*
X2420Y1617D02*
X2436Y1617D01*
X2469Y1617D02*
X2485Y1617D01*
X2520Y1617D02*
X2536Y1617D01*
X2569Y1617D02*
X2585Y1617D01*
X3320Y1617D02*
X3336Y1617D01*
X3369Y1617D02*
X3385Y1617D01*
X3420Y1617D02*
X3436Y1617D01*
X3469Y1617D02*
X3485Y1617D01*
X2421Y1616D02*
X2437Y1616D01*
X2469Y1616D02*
X2485Y1616D01*
X2521Y1616D02*
X2537Y1616D01*
X2569Y1616D02*
X2585Y1616D01*
X3320Y1616D02*
X3337Y1616D01*
X3369Y1616D02*
X3385Y1616D01*
X3420Y1616D02*
X3437Y1616D01*
X3469Y1616D02*
X3485Y1616D01*
X2421Y1615D02*
X2437Y1615D01*
X2469Y1615D02*
X2485Y1615D01*
X2521Y1615D02*
X2537Y1615D01*
X2568Y1615D02*
X2585Y1615D01*
X3321Y1615D02*
X3337Y1615D01*
X3368Y1615D02*
X3385Y1615D01*
X3421Y1615D02*
X3437Y1615D01*
X3468Y1615D02*
X3485Y1615D01*
X2421Y1614D02*
X2438Y1614D01*
X2468Y1614D02*
X2485Y1614D01*
X2521Y1614D02*
X2538Y1614D01*
X2568Y1614D02*
X2585Y1614D01*
X3321Y1614D02*
X3337Y1614D01*
X3368Y1614D02*
X3385Y1614D01*
X3421Y1614D02*
X3437Y1614D01*
X3468Y1614D02*
X3485Y1614D01*
X2421Y1613D02*
X2438Y1613D01*
X2467Y1613D02*
X2484Y1613D01*
X2521Y1613D02*
X2538Y1613D01*
X2567Y1613D02*
X2584Y1613D01*
X3321Y1613D02*
X3338Y1613D01*
X3367Y1613D02*
X3384Y1613D01*
X3421Y1613D02*
X3438Y1613D01*
X3467Y1613D02*
X3484Y1613D01*
X2421Y1612D02*
X2439Y1612D01*
X2467Y1612D02*
X2484Y1612D01*
X2521Y1612D02*
X2539Y1612D01*
X2567Y1612D02*
X2584Y1612D01*
X3321Y1612D02*
X3339Y1612D01*
X3367Y1612D02*
X3384Y1612D01*
X3421Y1612D02*
X3439Y1612D01*
X3467Y1612D02*
X3484Y1612D01*
X2422Y1611D02*
X2440Y1611D01*
X2466Y1611D02*
X2484Y1611D01*
X2522Y1611D02*
X2540Y1611D01*
X2566Y1611D02*
X2584Y1611D01*
X3322Y1611D02*
X3339Y1611D01*
X3366Y1611D02*
X3384Y1611D01*
X3422Y1611D02*
X3439Y1611D01*
X3466Y1611D02*
X3484Y1611D01*
X2422Y1610D02*
X2440Y1610D01*
X2465Y1610D02*
X2483Y1610D01*
X2522Y1610D02*
X2540Y1610D01*
X2565Y1610D02*
X2583Y1610D01*
X3322Y1610D02*
X3340Y1610D01*
X3365Y1610D02*
X3383Y1610D01*
X3422Y1610D02*
X3440Y1610D01*
X3465Y1610D02*
X3483Y1610D01*
X2422Y1609D02*
X2441Y1609D01*
X2464Y1609D02*
X2483Y1609D01*
X2522Y1609D02*
X2541Y1609D01*
X2564Y1609D02*
X2583Y1609D01*
X3322Y1609D02*
X3341Y1609D01*
X3364Y1609D02*
X3383Y1609D01*
X3422Y1609D02*
X3441Y1609D01*
X3464Y1609D02*
X3483Y1609D01*
X2423Y1608D02*
X2443Y1608D01*
X2463Y1608D02*
X2483Y1608D01*
X2523Y1608D02*
X2543Y1608D01*
X2563Y1608D02*
X2583Y1608D01*
X3323Y1608D02*
X3343Y1608D01*
X3363Y1608D02*
X3383Y1608D01*
X3423Y1608D02*
X3443Y1608D01*
X3463Y1608D02*
X3483Y1608D01*
X2423Y1607D02*
X2444Y1607D01*
X2461Y1607D02*
X2482Y1607D01*
X2523Y1607D02*
X2544Y1607D01*
X2561Y1607D02*
X2582Y1607D01*
X3323Y1607D02*
X3344Y1607D01*
X3361Y1607D02*
X3382Y1607D01*
X3423Y1607D02*
X3444Y1607D01*
X3461Y1607D02*
X3482Y1607D01*
X2424Y1606D02*
X2447Y1606D01*
X2459Y1606D02*
X2482Y1606D01*
X2524Y1606D02*
X2547Y1606D01*
X2559Y1606D02*
X2582Y1606D01*
X3324Y1606D02*
X3346Y1606D01*
X3359Y1606D02*
X3382Y1606D01*
X3424Y1606D02*
X3446Y1606D01*
X3459Y1606D02*
X3482Y1606D01*
X2424Y1605D02*
X2451Y1605D01*
X2454Y1605D02*
X2481Y1605D01*
X2524Y1605D02*
X2551Y1605D01*
X2554Y1605D02*
X2581Y1605D01*
X3324Y1605D02*
X3351Y1605D01*
X3354Y1605D02*
X3381Y1605D01*
X3424Y1605D02*
X3451Y1605D01*
X3454Y1605D02*
X3481Y1605D01*
X2425Y1604D02*
X2480Y1604D01*
X2525Y1604D02*
X2580Y1604D01*
X3325Y1604D02*
X3380Y1604D01*
X3425Y1604D02*
X3480Y1604D01*
X2426Y1603D02*
X2480Y1603D01*
X2526Y1603D02*
X2580Y1603D01*
X3326Y1603D02*
X3380Y1603D01*
X3426Y1603D02*
X3480Y1603D01*
X2426Y1602D02*
X2479Y1602D01*
X2526Y1602D02*
X2579Y1602D01*
X3326Y1602D02*
X3379Y1602D01*
X3426Y1602D02*
X3479Y1602D01*
X2427Y1601D02*
X2478Y1601D01*
X2527Y1601D02*
X2578Y1601D01*
X3327Y1601D02*
X3378Y1601D01*
X3427Y1601D02*
X3478Y1601D01*
X2428Y1600D02*
X2478Y1600D01*
X2528Y1600D02*
X2578Y1600D01*
X3328Y1600D02*
X3378Y1600D01*
X3428Y1600D02*
X3478Y1600D01*
X2429Y1599D02*
X2477Y1599D01*
X2529Y1599D02*
X2577Y1599D01*
X3329Y1599D02*
X3377Y1599D01*
X3429Y1599D02*
X3477Y1599D01*
X2430Y1598D02*
X2476Y1598D01*
X2530Y1598D02*
X2576Y1598D01*
X3330Y1598D02*
X3376Y1598D01*
X3430Y1598D02*
X3476Y1598D01*
X2431Y1597D02*
X2475Y1597D01*
X2531Y1597D02*
X2575Y1597D01*
X3331Y1597D02*
X3375Y1597D01*
X3431Y1597D02*
X3475Y1597D01*
X2432Y1596D02*
X2473Y1596D01*
X2532Y1596D02*
X2574Y1596D01*
X3332Y1596D02*
X3373Y1596D01*
X3432Y1596D02*
X3473Y1596D01*
X2433Y1595D02*
X2472Y1595D01*
X2533Y1595D02*
X2572Y1595D01*
X3333Y1595D02*
X3372Y1595D01*
X3433Y1595D02*
X3472Y1595D01*
X2435Y1594D02*
X2471Y1594D01*
X2535Y1594D02*
X2571Y1594D01*
X3335Y1594D02*
X3371Y1594D01*
X3435Y1594D02*
X3471Y1594D01*
X2436Y1593D02*
X2469Y1593D01*
X2536Y1593D02*
X2569Y1593D01*
X3336Y1593D02*
X3369Y1593D01*
X3436Y1593D02*
X3469Y1593D01*
X2438Y1592D02*
X2467Y1592D01*
X2538Y1592D02*
X2567Y1592D01*
X3338Y1592D02*
X3367Y1592D01*
X3438Y1592D02*
X3467Y1592D01*
X2440Y1591D02*
X2465Y1591D01*
X2540Y1591D02*
X2565Y1591D01*
X3340Y1591D02*
X3365Y1591D01*
X3440Y1591D02*
X3465Y1591D01*
X2443Y1590D02*
X2463Y1590D01*
X2543Y1590D02*
X2563Y1590D01*
X3343Y1590D02*
X3363Y1590D01*
X3443Y1590D02*
X3463Y1590D01*
X2447Y1589D02*
X2459Y1589D01*
X2547Y1589D02*
X2559Y1589D01*
X3346Y1589D02*
X3359Y1589D01*
X3447Y1589D02*
X3459Y1589D01*
X2360Y568D02*
X2360Y568D01*
X2460Y568D02*
X2460Y568D01*
X2560Y568D02*
X2560Y568D01*
X2660Y568D02*
X2660Y568D01*
X3260Y568D02*
X3260Y568D01*
X3360Y568D02*
X3360Y568D01*
X3460Y568D02*
X3460Y568D01*
X3560Y568D02*
X3560Y568D01*
X2352Y567D02*
X2367Y567D01*
X2452Y567D02*
X2467Y567D01*
X2552Y567D02*
X2567Y567D01*
X2652Y567D02*
X2667Y567D01*
X3252Y567D02*
X3267Y567D01*
X3352Y567D02*
X3367Y567D01*
X3452Y567D02*
X3467Y567D01*
X3552Y567D02*
X3567Y567D01*
X2349Y566D02*
X2371Y566D01*
X2449Y566D02*
X2471Y566D01*
X2549Y566D02*
X2571Y566D01*
X2649Y566D02*
X2671Y566D01*
X3249Y566D02*
X3271Y566D01*
X3349Y566D02*
X3371Y566D01*
X3449Y566D02*
X3471Y566D01*
X3549Y566D02*
X3571Y566D01*
X2346Y565D02*
X2373Y565D01*
X2446Y565D02*
X2473Y565D01*
X2546Y565D02*
X2573Y565D01*
X2646Y565D02*
X2673Y565D01*
X3246Y565D02*
X3273Y565D01*
X3346Y565D02*
X3373Y565D01*
X3446Y565D02*
X3473Y565D01*
X3546Y565D02*
X3573Y565D01*
X2344Y564D02*
X2375Y564D01*
X2444Y564D02*
X2475Y564D01*
X2544Y564D02*
X2575Y564D01*
X2644Y564D02*
X2675Y564D01*
X3244Y564D02*
X3275Y564D01*
X3344Y564D02*
X3375Y564D01*
X3444Y564D02*
X3475Y564D01*
X3544Y564D02*
X3575Y564D01*
X2343Y563D02*
X2377Y563D01*
X2443Y563D02*
X2477Y563D01*
X2543Y563D02*
X2577Y563D01*
X2643Y563D02*
X2677Y563D01*
X3243Y563D02*
X3277Y563D01*
X3343Y563D02*
X3377Y563D01*
X3443Y563D02*
X3477Y563D01*
X3543Y563D02*
X3577Y563D01*
X2341Y562D02*
X2378Y562D01*
X2441Y562D02*
X2478Y562D01*
X2541Y562D02*
X2578Y562D01*
X2641Y562D02*
X2678Y562D01*
X3241Y562D02*
X3278Y562D01*
X3341Y562D02*
X3378Y562D01*
X3441Y562D02*
X3478Y562D01*
X3541Y562D02*
X3578Y562D01*
X2340Y561D02*
X2380Y561D01*
X2440Y561D02*
X2480Y561D01*
X2540Y561D02*
X2580Y561D01*
X2640Y561D02*
X2680Y561D01*
X3240Y561D02*
X3280Y561D01*
X3340Y561D02*
X3380Y561D01*
X3440Y561D02*
X3480Y561D01*
X3540Y561D02*
X3580Y561D01*
X2339Y560D02*
X2381Y560D01*
X2439Y560D02*
X2481Y560D01*
X2539Y560D02*
X2581Y560D01*
X2639Y560D02*
X2681Y560D01*
X3239Y560D02*
X3281Y560D01*
X3339Y560D02*
X3381Y560D01*
X3439Y560D02*
X3481Y560D01*
X3539Y560D02*
X3581Y560D01*
X2337Y559D02*
X2382Y559D01*
X2437Y559D02*
X2482Y559D01*
X2538Y559D02*
X2582Y559D01*
X2637Y559D02*
X2682Y559D01*
X3237Y559D02*
X3282Y559D01*
X3337Y559D02*
X3382Y559D01*
X3437Y559D02*
X3482Y559D01*
X3537Y559D02*
X3582Y559D01*
X2336Y558D02*
X2383Y558D01*
X2436Y558D02*
X2483Y558D01*
X2536Y558D02*
X2583Y558D01*
X2636Y558D02*
X2683Y558D01*
X3236Y558D02*
X3283Y558D01*
X3336Y558D02*
X3383Y558D01*
X3436Y558D02*
X3483Y558D01*
X3536Y558D02*
X3583Y558D01*
X2336Y557D02*
X2384Y557D01*
X2436Y557D02*
X2484Y557D01*
X2536Y557D02*
X2584Y557D01*
X2636Y557D02*
X2684Y557D01*
X3235Y557D02*
X3284Y557D01*
X3336Y557D02*
X3384Y557D01*
X3436Y557D02*
X3484Y557D01*
X3535Y557D02*
X3584Y557D01*
X2335Y556D02*
X2385Y556D01*
X2435Y556D02*
X2485Y556D01*
X2535Y556D02*
X2585Y556D01*
X2635Y556D02*
X2685Y556D01*
X3235Y556D02*
X3285Y556D01*
X3335Y556D02*
X3385Y556D01*
X3435Y556D02*
X3485Y556D01*
X3535Y556D02*
X3585Y556D01*
X2334Y555D02*
X2386Y555D01*
X2434Y555D02*
X2486Y555D01*
X2534Y555D02*
X2586Y555D01*
X2634Y555D02*
X2686Y555D01*
X3234Y555D02*
X3286Y555D01*
X3334Y555D02*
X3386Y555D01*
X3434Y555D02*
X3486Y555D01*
X3534Y555D02*
X3586Y555D01*
X2333Y554D02*
X2386Y554D01*
X2433Y554D02*
X2486Y554D01*
X2533Y554D02*
X2586Y554D01*
X2633Y554D02*
X2686Y554D01*
X3233Y554D02*
X3286Y554D01*
X3333Y554D02*
X3386Y554D01*
X3433Y554D02*
X3486Y554D01*
X3533Y554D02*
X3586Y554D01*
X2332Y553D02*
X2387Y553D01*
X2432Y553D02*
X2487Y553D01*
X2532Y553D02*
X2587Y553D01*
X2632Y553D02*
X2687Y553D01*
X3232Y553D02*
X3287Y553D01*
X3332Y553D02*
X3387Y553D01*
X3432Y553D02*
X3487Y553D01*
X3532Y553D02*
X3587Y553D01*
X2332Y552D02*
X2388Y552D01*
X2432Y552D02*
X2488Y552D01*
X2532Y552D02*
X2588Y552D01*
X2632Y552D02*
X2688Y552D01*
X3232Y552D02*
X3288Y552D01*
X3332Y552D02*
X3388Y552D01*
X3432Y552D02*
X3488Y552D01*
X3532Y552D02*
X3588Y552D01*
X2331Y551D02*
X2356Y551D01*
X2364Y551D02*
X2388Y551D01*
X2431Y551D02*
X2456Y551D01*
X2464Y551D02*
X2488Y551D01*
X2531Y551D02*
X2556Y551D01*
X2564Y551D02*
X2588Y551D01*
X2631Y551D02*
X2656Y551D01*
X2664Y551D02*
X2688Y551D01*
X3231Y551D02*
X3256Y551D01*
X3264Y551D02*
X3288Y551D01*
X3331Y551D02*
X3356Y551D01*
X3364Y551D02*
X3388Y551D01*
X3431Y551D02*
X3456Y551D01*
X3464Y551D02*
X3488Y551D01*
X3531Y551D02*
X3556Y551D01*
X3564Y551D02*
X3588Y551D01*
X2331Y550D02*
X2353Y550D01*
X2367Y550D02*
X2389Y550D01*
X2431Y550D02*
X2453Y550D01*
X2467Y550D02*
X2489Y550D01*
X2531Y550D02*
X2553Y550D01*
X2567Y550D02*
X2589Y550D01*
X2631Y550D02*
X2653Y550D01*
X2667Y550D02*
X2689Y550D01*
X3231Y550D02*
X3253Y550D01*
X3267Y550D02*
X3289Y550D01*
X3331Y550D02*
X3353Y550D01*
X3367Y550D02*
X3389Y550D01*
X3431Y550D02*
X3453Y550D01*
X3467Y550D02*
X3489Y550D01*
X3531Y550D02*
X3553Y550D01*
X3567Y550D02*
X3589Y550D01*
X2330Y549D02*
X2351Y549D01*
X2369Y549D02*
X2389Y549D01*
X2430Y549D02*
X2451Y549D01*
X2469Y549D02*
X2489Y549D01*
X2530Y549D02*
X2551Y549D01*
X2569Y549D02*
X2589Y549D01*
X2630Y549D02*
X2651Y549D01*
X2669Y549D02*
X2689Y549D01*
X3230Y549D02*
X3251Y549D01*
X3269Y549D02*
X3289Y549D01*
X3330Y549D02*
X3351Y549D01*
X3369Y549D02*
X3389Y549D01*
X3430Y549D02*
X3451Y549D01*
X3469Y549D02*
X3489Y549D01*
X3530Y549D02*
X3551Y549D01*
X3569Y549D02*
X3589Y549D01*
X2330Y548D02*
X2349Y548D01*
X2370Y548D02*
X2390Y548D01*
X2430Y548D02*
X2449Y548D01*
X2470Y548D02*
X2490Y548D01*
X2530Y548D02*
X2549Y548D01*
X2570Y548D02*
X2590Y548D01*
X2630Y548D02*
X2649Y548D01*
X2670Y548D02*
X2690Y548D01*
X3230Y548D02*
X3249Y548D01*
X3270Y548D02*
X3290Y548D01*
X3330Y548D02*
X3349Y548D01*
X3370Y548D02*
X3390Y548D01*
X3430Y548D02*
X3449Y548D01*
X3470Y548D02*
X3490Y548D01*
X3530Y548D02*
X3549Y548D01*
X3570Y548D02*
X3590Y548D01*
X2329Y547D02*
X2348Y547D01*
X2371Y547D02*
X2390Y547D01*
X2429Y547D02*
X2448Y547D01*
X2471Y547D02*
X2490Y547D01*
X2529Y547D02*
X2548Y547D01*
X2571Y547D02*
X2590Y547D01*
X2629Y547D02*
X2648Y547D01*
X2671Y547D02*
X2690Y547D01*
X3229Y547D02*
X3248Y547D01*
X3271Y547D02*
X3290Y547D01*
X3329Y547D02*
X3348Y547D01*
X3371Y547D02*
X3390Y547D01*
X3429Y547D02*
X3448Y547D01*
X3471Y547D02*
X3490Y547D01*
X3529Y547D02*
X3548Y547D01*
X3571Y547D02*
X3590Y547D01*
X2329Y546D02*
X2347Y546D01*
X2372Y546D02*
X2390Y546D01*
X2429Y546D02*
X2447Y546D01*
X2472Y546D02*
X2490Y546D01*
X2529Y546D02*
X2547Y546D01*
X2572Y546D02*
X2591Y546D01*
X2629Y546D02*
X2647Y546D01*
X2672Y546D02*
X2690Y546D01*
X3229Y546D02*
X3247Y546D01*
X3272Y546D02*
X3290Y546D01*
X3329Y546D02*
X3347Y546D01*
X3372Y546D02*
X3390Y546D01*
X3429Y546D02*
X3447Y546D01*
X3472Y546D02*
X3490Y546D01*
X3529Y546D02*
X3547Y546D01*
X3572Y546D02*
X3590Y546D01*
X2329Y545D02*
X2346Y545D01*
X2373Y545D02*
X2391Y545D01*
X2429Y545D02*
X2446Y545D01*
X2473Y545D02*
X2491Y545D01*
X2529Y545D02*
X2546Y545D01*
X2573Y545D02*
X2591Y545D01*
X2629Y545D02*
X2646Y545D01*
X2673Y545D02*
X2691Y545D01*
X3229Y545D02*
X3246Y545D01*
X3273Y545D02*
X3291Y545D01*
X3329Y545D02*
X3346Y545D01*
X3373Y545D02*
X3391Y545D01*
X3429Y545D02*
X3446Y545D01*
X3473Y545D02*
X3491Y545D01*
X3529Y545D02*
X3546Y545D01*
X3573Y545D02*
X3591Y545D01*
X2328Y544D02*
X2345Y544D01*
X2374Y544D02*
X2391Y544D01*
X2428Y544D02*
X2445Y544D01*
X2474Y544D02*
X2491Y544D01*
X2528Y544D02*
X2545Y544D01*
X2574Y544D02*
X2591Y544D01*
X2628Y544D02*
X2645Y544D01*
X2674Y544D02*
X2691Y544D01*
X3228Y544D02*
X3245Y544D01*
X3274Y544D02*
X3291Y544D01*
X3328Y544D02*
X3345Y544D01*
X3374Y544D02*
X3391Y544D01*
X3428Y544D02*
X3445Y544D01*
X3474Y544D02*
X3491Y544D01*
X3528Y544D02*
X3545Y544D01*
X3574Y544D02*
X3591Y544D01*
X2328Y543D02*
X2345Y543D01*
X2375Y543D02*
X2391Y543D01*
X2428Y543D02*
X2445Y543D01*
X2475Y543D02*
X2491Y543D01*
X2528Y543D02*
X2545Y543D01*
X2575Y543D02*
X2591Y543D01*
X2628Y543D02*
X2645Y543D01*
X2675Y543D02*
X2691Y543D01*
X3228Y543D02*
X3245Y543D01*
X3275Y543D02*
X3291Y543D01*
X3328Y543D02*
X3345Y543D01*
X3375Y543D02*
X3391Y543D01*
X3428Y543D02*
X3445Y543D01*
X3475Y543D02*
X3491Y543D01*
X3528Y543D02*
X3545Y543D01*
X3575Y543D02*
X3591Y543D01*
X2328Y542D02*
X2344Y542D01*
X2375Y542D02*
X2392Y542D01*
X2428Y542D02*
X2444Y542D01*
X2475Y542D02*
X2492Y542D01*
X2528Y542D02*
X2544Y542D01*
X2575Y542D02*
X2592Y542D01*
X2628Y542D02*
X2644Y542D01*
X2675Y542D02*
X2692Y542D01*
X3228Y542D02*
X3244Y542D01*
X3275Y542D02*
X3292Y542D01*
X3328Y542D02*
X3344Y542D01*
X3375Y542D02*
X3392Y542D01*
X3428Y542D02*
X3444Y542D01*
X3475Y542D02*
X3492Y542D01*
X3528Y542D02*
X3544Y542D01*
X3575Y542D02*
X3592Y542D01*
X2328Y541D02*
X2344Y541D01*
X2376Y541D02*
X2392Y541D01*
X2428Y541D02*
X2444Y541D01*
X2476Y541D02*
X2492Y541D01*
X2528Y541D02*
X2544Y541D01*
X2576Y541D02*
X2592Y541D01*
X2628Y541D02*
X2644Y541D01*
X2676Y541D02*
X2692Y541D01*
X3228Y541D02*
X3244Y541D01*
X3276Y541D02*
X3292Y541D01*
X3328Y541D02*
X3344Y541D01*
X3376Y541D02*
X3392Y541D01*
X3428Y541D02*
X3444Y541D01*
X3476Y541D02*
X3492Y541D01*
X3528Y541D02*
X3544Y541D01*
X3576Y541D02*
X3592Y541D01*
X2327Y540D02*
X2344Y540D01*
X2376Y540D02*
X2392Y540D01*
X2427Y540D02*
X2444Y540D01*
X2476Y540D02*
X2492Y540D01*
X2527Y540D02*
X2544Y540D01*
X2576Y540D02*
X2592Y540D01*
X2627Y540D02*
X2644Y540D01*
X2676Y540D02*
X2692Y540D01*
X3227Y540D02*
X3243Y540D01*
X3276Y540D02*
X3292Y540D01*
X3327Y540D02*
X3343Y540D01*
X3376Y540D02*
X3392Y540D01*
X3427Y540D02*
X3443Y540D01*
X3476Y540D02*
X3492Y540D01*
X3527Y540D02*
X3543Y540D01*
X3576Y540D02*
X3592Y540D01*
X2327Y539D02*
X2343Y539D01*
X2376Y539D02*
X2392Y539D01*
X2427Y539D02*
X2443Y539D01*
X2476Y539D02*
X2492Y539D01*
X2527Y539D02*
X2543Y539D01*
X2576Y539D02*
X2592Y539D01*
X2627Y539D02*
X2643Y539D01*
X2676Y539D02*
X2692Y539D01*
X3227Y539D02*
X3243Y539D01*
X3276Y539D02*
X3292Y539D01*
X3327Y539D02*
X3343Y539D01*
X3376Y539D02*
X3392Y539D01*
X3427Y539D02*
X3443Y539D01*
X3476Y539D02*
X3492Y539D01*
X3527Y539D02*
X3543Y539D01*
X3576Y539D02*
X3592Y539D01*
X2327Y538D02*
X2343Y538D01*
X2377Y538D02*
X2392Y538D01*
X2427Y538D02*
X2443Y538D01*
X2477Y538D02*
X2492Y538D01*
X2527Y538D02*
X2543Y538D01*
X2577Y538D02*
X2592Y538D01*
X2627Y538D02*
X2643Y538D01*
X2677Y538D02*
X2692Y538D01*
X3227Y538D02*
X3243Y538D01*
X3276Y538D02*
X3292Y538D01*
X3327Y538D02*
X3343Y538D01*
X3376Y538D02*
X3392Y538D01*
X3427Y538D02*
X3443Y538D01*
X3476Y538D02*
X3492Y538D01*
X3527Y538D02*
X3543Y538D01*
X3576Y538D02*
X3592Y538D01*
X2327Y537D02*
X2343Y537D01*
X2377Y537D02*
X2392Y537D01*
X2427Y537D02*
X2443Y537D01*
X2477Y537D02*
X2492Y537D01*
X2527Y537D02*
X2543Y537D01*
X2577Y537D02*
X2592Y537D01*
X2627Y537D02*
X2643Y537D01*
X2677Y537D02*
X2692Y537D01*
X3227Y537D02*
X3243Y537D01*
X3277Y537D02*
X3292Y537D01*
X3327Y537D02*
X3343Y537D01*
X3377Y537D02*
X3392Y537D01*
X3427Y537D02*
X3443Y537D01*
X3477Y537D02*
X3492Y537D01*
X3527Y537D02*
X3543Y537D01*
X3577Y537D02*
X3592Y537D01*
X2327Y536D02*
X2343Y536D01*
X2377Y536D02*
X2392Y536D01*
X2427Y536D02*
X2443Y536D01*
X2477Y536D02*
X2492Y536D01*
X2527Y536D02*
X2543Y536D01*
X2577Y536D02*
X2592Y536D01*
X2627Y536D02*
X2643Y536D01*
X2677Y536D02*
X2692Y536D01*
X3227Y536D02*
X3243Y536D01*
X3277Y536D02*
X3292Y536D01*
X3327Y536D02*
X3343Y536D01*
X3377Y536D02*
X3392Y536D01*
X3427Y536D02*
X3443Y536D01*
X3477Y536D02*
X3492Y536D01*
X3527Y536D02*
X3543Y536D01*
X3577Y536D02*
X3592Y536D01*
X2327Y535D02*
X2343Y535D01*
X2377Y535D02*
X2392Y535D01*
X2427Y535D02*
X2443Y535D01*
X2477Y535D02*
X2492Y535D01*
X2527Y535D02*
X2543Y535D01*
X2577Y535D02*
X2592Y535D01*
X2627Y535D02*
X2643Y535D01*
X2677Y535D02*
X2692Y535D01*
X3227Y535D02*
X3243Y535D01*
X3277Y535D02*
X3292Y535D01*
X3327Y535D02*
X3343Y535D01*
X3377Y535D02*
X3392Y535D01*
X3427Y535D02*
X3443Y535D01*
X3477Y535D02*
X3492Y535D01*
X3527Y535D02*
X3543Y535D01*
X3577Y535D02*
X3592Y535D01*
X2327Y534D02*
X2343Y534D01*
X2377Y534D02*
X2392Y534D01*
X2427Y534D02*
X2443Y534D01*
X2477Y534D02*
X2492Y534D01*
X2527Y534D02*
X2543Y534D01*
X2577Y534D02*
X2592Y534D01*
X2627Y534D02*
X2643Y534D01*
X2677Y534D02*
X2692Y534D01*
X3227Y534D02*
X3243Y534D01*
X3277Y534D02*
X3292Y534D01*
X3327Y534D02*
X3343Y534D01*
X3377Y534D02*
X3392Y534D01*
X3427Y534D02*
X3443Y534D01*
X3477Y534D02*
X3492Y534D01*
X3527Y534D02*
X3543Y534D01*
X3577Y534D02*
X3592Y534D01*
X2327Y533D02*
X2343Y533D01*
X2377Y533D02*
X2392Y533D01*
X2427Y533D02*
X2443Y533D01*
X2477Y533D02*
X2492Y533D01*
X2527Y533D02*
X2543Y533D01*
X2577Y533D02*
X2592Y533D01*
X2627Y533D02*
X2643Y533D01*
X2677Y533D02*
X2692Y533D01*
X3227Y533D02*
X3243Y533D01*
X3277Y533D02*
X3292Y533D01*
X3327Y533D02*
X3343Y533D01*
X3377Y533D02*
X3392Y533D01*
X3427Y533D02*
X3443Y533D01*
X3477Y533D02*
X3492Y533D01*
X3527Y533D02*
X3543Y533D01*
X3577Y533D02*
X3592Y533D01*
X2327Y532D02*
X2343Y532D01*
X2377Y532D02*
X2392Y532D01*
X2427Y532D02*
X2443Y532D01*
X2477Y532D02*
X2492Y532D01*
X2527Y532D02*
X2543Y532D01*
X2577Y532D02*
X2592Y532D01*
X2627Y532D02*
X2643Y532D01*
X2677Y532D02*
X2692Y532D01*
X3227Y532D02*
X3243Y532D01*
X3277Y532D02*
X3292Y532D01*
X3327Y532D02*
X3343Y532D01*
X3377Y532D02*
X3392Y532D01*
X3427Y532D02*
X3443Y532D01*
X3477Y532D02*
X3492Y532D01*
X3527Y532D02*
X3543Y532D01*
X3577Y532D02*
X3592Y532D01*
X2327Y531D02*
X2343Y531D01*
X2376Y531D02*
X2392Y531D01*
X2427Y531D02*
X2443Y531D01*
X2476Y531D02*
X2492Y531D01*
X2527Y531D02*
X2543Y531D01*
X2576Y531D02*
X2592Y531D01*
X2627Y531D02*
X2643Y531D01*
X2676Y531D02*
X2692Y531D01*
X3227Y531D02*
X3243Y531D01*
X3276Y531D02*
X3292Y531D01*
X3327Y531D02*
X3343Y531D01*
X3376Y531D02*
X3392Y531D01*
X3427Y531D02*
X3443Y531D01*
X3476Y531D02*
X3492Y531D01*
X3527Y531D02*
X3543Y531D01*
X3576Y531D02*
X3592Y531D01*
X2327Y530D02*
X2343Y530D01*
X2376Y530D02*
X2392Y530D01*
X2427Y530D02*
X2443Y530D01*
X2476Y530D02*
X2492Y530D01*
X2527Y530D02*
X2543Y530D01*
X2576Y530D02*
X2592Y530D01*
X2627Y530D02*
X2643Y530D01*
X2676Y530D02*
X2692Y530D01*
X3227Y530D02*
X3243Y530D01*
X3276Y530D02*
X3292Y530D01*
X3327Y530D02*
X3343Y530D01*
X3376Y530D02*
X3392Y530D01*
X3427Y530D02*
X3443Y530D01*
X3476Y530D02*
X3492Y530D01*
X3527Y530D02*
X3543Y530D01*
X3576Y530D02*
X3592Y530D01*
X2328Y529D02*
X2344Y529D01*
X2376Y529D02*
X2392Y529D01*
X2428Y529D02*
X2444Y529D01*
X2476Y529D02*
X2492Y529D01*
X2528Y529D02*
X2544Y529D01*
X2576Y529D02*
X2592Y529D01*
X2628Y529D02*
X2644Y529D01*
X2676Y529D02*
X2692Y529D01*
X3227Y529D02*
X3244Y529D01*
X3276Y529D02*
X3292Y529D01*
X3327Y529D02*
X3344Y529D01*
X3376Y529D02*
X3392Y529D01*
X3427Y529D02*
X3444Y529D01*
X3476Y529D02*
X3492Y529D01*
X3527Y529D02*
X3544Y529D01*
X3576Y529D02*
X3592Y529D01*
X2328Y528D02*
X2344Y528D01*
X2375Y528D02*
X2392Y528D01*
X2428Y528D02*
X2444Y528D01*
X2475Y528D02*
X2492Y528D01*
X2528Y528D02*
X2544Y528D01*
X2575Y528D02*
X2592Y528D01*
X2628Y528D02*
X2644Y528D01*
X2675Y528D02*
X2692Y528D01*
X3228Y528D02*
X3244Y528D01*
X3275Y528D02*
X3292Y528D01*
X3328Y528D02*
X3344Y528D01*
X3375Y528D02*
X3392Y528D01*
X3428Y528D02*
X3444Y528D01*
X3475Y528D02*
X3492Y528D01*
X3528Y528D02*
X3544Y528D01*
X3575Y528D02*
X3592Y528D01*
X2328Y527D02*
X2345Y527D01*
X2375Y527D02*
X2392Y527D01*
X2428Y527D02*
X2445Y527D01*
X2475Y527D02*
X2492Y527D01*
X2528Y527D02*
X2545Y527D01*
X2575Y527D02*
X2592Y527D01*
X2628Y527D02*
X2645Y527D01*
X2675Y527D02*
X2692Y527D01*
X3228Y527D02*
X3245Y527D01*
X3275Y527D02*
X3291Y527D01*
X3328Y527D02*
X3345Y527D01*
X3375Y527D02*
X3391Y527D01*
X3428Y527D02*
X3445Y527D01*
X3475Y527D02*
X3491Y527D01*
X3528Y527D02*
X3545Y527D01*
X3575Y527D02*
X3591Y527D01*
X2328Y526D02*
X2345Y526D01*
X2374Y526D02*
X2391Y526D01*
X2428Y526D02*
X2445Y526D01*
X2474Y526D02*
X2491Y526D01*
X2528Y526D02*
X2545Y526D01*
X2574Y526D02*
X2591Y526D01*
X2628Y526D02*
X2645Y526D01*
X2674Y526D02*
X2691Y526D01*
X3228Y526D02*
X3245Y526D01*
X3274Y526D02*
X3291Y526D01*
X3328Y526D02*
X3345Y526D01*
X3374Y526D02*
X3391Y526D01*
X3428Y526D02*
X3445Y526D01*
X3474Y526D02*
X3491Y526D01*
X3528Y526D02*
X3545Y526D01*
X3574Y526D02*
X3591Y526D01*
X2328Y525D02*
X2346Y525D01*
X2374Y525D02*
X2391Y525D01*
X2428Y525D02*
X2446Y525D01*
X2474Y525D02*
X2491Y525D01*
X2528Y525D02*
X2546Y525D01*
X2574Y525D02*
X2591Y525D01*
X2628Y525D02*
X2646Y525D01*
X2674Y525D02*
X2691Y525D01*
X3228Y525D02*
X3246Y525D01*
X3274Y525D02*
X3291Y525D01*
X3328Y525D02*
X3346Y525D01*
X3374Y525D02*
X3391Y525D01*
X3428Y525D02*
X3446Y525D01*
X3474Y525D02*
X3491Y525D01*
X3528Y525D02*
X3546Y525D01*
X3574Y525D02*
X3591Y525D01*
X2329Y524D02*
X2347Y524D01*
X2373Y524D02*
X2391Y524D01*
X2429Y524D02*
X2447Y524D01*
X2473Y524D02*
X2491Y524D01*
X2529Y524D02*
X2547Y524D01*
X2573Y524D02*
X2591Y524D01*
X2629Y524D02*
X2647Y524D01*
X2673Y524D02*
X2691Y524D01*
X3229Y524D02*
X3247Y524D01*
X3273Y524D02*
X3291Y524D01*
X3329Y524D02*
X3347Y524D01*
X3373Y524D02*
X3391Y524D01*
X3429Y524D02*
X3447Y524D01*
X3473Y524D02*
X3491Y524D01*
X3529Y524D02*
X3547Y524D01*
X3573Y524D02*
X3591Y524D01*
X2329Y523D02*
X2348Y523D01*
X2372Y523D02*
X2390Y523D01*
X2429Y523D02*
X2448Y523D01*
X2472Y523D02*
X2490Y523D01*
X2529Y523D02*
X2548Y523D01*
X2572Y523D02*
X2590Y523D01*
X2629Y523D02*
X2648Y523D01*
X2672Y523D02*
X2690Y523D01*
X3229Y523D02*
X3248Y523D01*
X3272Y523D02*
X3290Y523D01*
X3329Y523D02*
X3348Y523D01*
X3372Y523D02*
X3390Y523D01*
X3429Y523D02*
X3448Y523D01*
X3472Y523D02*
X3490Y523D01*
X3529Y523D02*
X3548Y523D01*
X3572Y523D02*
X3590Y523D01*
X2330Y522D02*
X2349Y522D01*
X2371Y522D02*
X2390Y522D01*
X2430Y522D02*
X2449Y522D01*
X2471Y522D02*
X2490Y522D01*
X2530Y522D02*
X2549Y522D01*
X2571Y522D02*
X2590Y522D01*
X2630Y522D02*
X2649Y522D01*
X2671Y522D02*
X2690Y522D01*
X3230Y522D02*
X3249Y522D01*
X3271Y522D02*
X3290Y522D01*
X3330Y522D02*
X3349Y522D01*
X3371Y522D02*
X3390Y522D01*
X3430Y522D02*
X3449Y522D01*
X3471Y522D02*
X3490Y522D01*
X3530Y522D02*
X3549Y522D01*
X3571Y522D02*
X3590Y522D01*
X2330Y521D02*
X2350Y521D01*
X2369Y521D02*
X2389Y521D01*
X2430Y521D02*
X2450Y521D01*
X2469Y521D02*
X2489Y521D01*
X2530Y521D02*
X2550Y521D01*
X2569Y521D02*
X2589Y521D01*
X2630Y521D02*
X2650Y521D01*
X2669Y521D02*
X2689Y521D01*
X3230Y521D02*
X3250Y521D01*
X3269Y521D02*
X3289Y521D01*
X3330Y521D02*
X3350Y521D01*
X3369Y521D02*
X3389Y521D01*
X3430Y521D02*
X3450Y521D01*
X3469Y521D02*
X3489Y521D01*
X3530Y521D02*
X3550Y521D01*
X3569Y521D02*
X3589Y521D01*
X2330Y520D02*
X2352Y520D01*
X2368Y520D02*
X2389Y520D01*
X2431Y520D02*
X2452Y520D01*
X2468Y520D02*
X2489Y520D01*
X2531Y520D02*
X2552Y520D01*
X2568Y520D02*
X2589Y520D01*
X2630Y520D02*
X2652Y520D01*
X2668Y520D02*
X2689Y520D01*
X3230Y520D02*
X3252Y520D01*
X3268Y520D02*
X3289Y520D01*
X3330Y520D02*
X3352Y520D01*
X3368Y520D02*
X3389Y520D01*
X3430Y520D02*
X3452Y520D01*
X3468Y520D02*
X3489Y520D01*
X3530Y520D02*
X3552Y520D01*
X3568Y520D02*
X3589Y520D01*
X2331Y519D02*
X2354Y519D01*
X2365Y519D02*
X2388Y519D01*
X2431Y519D02*
X2454Y519D01*
X2465Y519D02*
X2488Y519D01*
X2531Y519D02*
X2554Y519D01*
X2565Y519D02*
X2588Y519D01*
X2631Y519D02*
X2654Y519D01*
X2665Y519D02*
X2688Y519D01*
X3231Y519D02*
X3254Y519D01*
X3265Y519D02*
X3288Y519D01*
X3331Y519D02*
X3354Y519D01*
X3365Y519D02*
X3388Y519D01*
X3431Y519D02*
X3454Y519D01*
X3465Y519D02*
X3488Y519D01*
X3531Y519D02*
X3554Y519D01*
X3565Y519D02*
X3588Y519D01*
X2332Y518D02*
X2388Y518D01*
X2432Y518D02*
X2488Y518D01*
X2532Y518D02*
X2588Y518D01*
X2632Y518D02*
X2688Y518D01*
X3232Y518D02*
X3288Y518D01*
X3332Y518D02*
X3388Y518D01*
X3432Y518D02*
X3488Y518D01*
X3532Y518D02*
X3588Y518D01*
X2332Y517D02*
X2387Y517D01*
X2432Y517D02*
X2487Y517D01*
X2532Y517D02*
X2587Y517D01*
X2632Y517D02*
X2687Y517D01*
X3232Y517D02*
X3287Y517D01*
X3332Y517D02*
X3387Y517D01*
X3432Y517D02*
X3487Y517D01*
X3532Y517D02*
X3587Y517D01*
X2333Y516D02*
X2387Y516D01*
X2433Y516D02*
X2487Y516D01*
X2533Y516D02*
X2587Y516D01*
X2633Y516D02*
X2687Y516D01*
X3233Y516D02*
X3287Y516D01*
X3333Y516D02*
X3387Y516D01*
X3433Y516D02*
X3487Y516D01*
X3533Y516D02*
X3587Y516D01*
X2334Y515D02*
X2386Y515D01*
X2434Y515D02*
X2486Y515D01*
X2534Y515D02*
X2586Y515D01*
X2634Y515D02*
X2686Y515D01*
X3234Y515D02*
X3286Y515D01*
X3334Y515D02*
X3386Y515D01*
X3434Y515D02*
X3486Y515D01*
X3534Y515D02*
X3586Y515D01*
X2334Y514D02*
X2385Y514D01*
X2434Y514D02*
X2485Y514D01*
X2534Y514D02*
X2585Y514D01*
X2634Y514D02*
X2685Y514D01*
X3234Y514D02*
X3285Y514D01*
X3334Y514D02*
X3385Y514D01*
X3434Y514D02*
X3485Y514D01*
X3534Y514D02*
X3585Y514D01*
X2335Y513D02*
X2384Y513D01*
X2435Y513D02*
X2484Y513D01*
X2535Y513D02*
X2584Y513D01*
X2635Y513D02*
X2684Y513D01*
X3235Y513D02*
X3284Y513D01*
X3335Y513D02*
X3384Y513D01*
X3435Y513D02*
X3484Y513D01*
X3535Y513D02*
X3584Y513D01*
X2336Y512D02*
X2383Y512D01*
X2436Y512D02*
X2483Y512D01*
X2536Y512D02*
X2583Y512D01*
X2636Y512D02*
X2683Y512D01*
X3236Y512D02*
X3283Y512D01*
X3336Y512D02*
X3383Y512D01*
X3436Y512D02*
X3483Y512D01*
X3536Y512D02*
X3583Y512D01*
X2337Y511D02*
X2382Y511D01*
X2437Y511D02*
X2482Y511D01*
X2537Y511D02*
X2582Y511D01*
X2637Y511D02*
X2682Y511D01*
X3237Y511D02*
X3282Y511D01*
X3337Y511D02*
X3382Y511D01*
X3437Y511D02*
X3482Y511D01*
X3537Y511D02*
X3582Y511D01*
X2338Y510D02*
X2381Y510D01*
X2438Y510D02*
X2481Y510D01*
X2538Y510D02*
X2581Y510D01*
X2638Y510D02*
X2681Y510D01*
X3238Y510D02*
X3281Y510D01*
X3338Y510D02*
X3381Y510D01*
X3438Y510D02*
X3481Y510D01*
X3538Y510D02*
X3581Y510D01*
X2339Y509D02*
X2380Y509D01*
X2439Y509D02*
X2480Y509D01*
X2539Y509D02*
X2580Y509D01*
X2639Y509D02*
X2680Y509D01*
X3239Y509D02*
X3280Y509D01*
X3339Y509D02*
X3380Y509D01*
X3439Y509D02*
X3480Y509D01*
X3539Y509D02*
X3580Y509D01*
X2341Y508D02*
X2379Y508D01*
X2441Y508D02*
X2479Y508D01*
X2541Y508D02*
X2579Y508D01*
X2641Y508D02*
X2679Y508D01*
X3241Y508D02*
X3279Y508D01*
X3341Y508D02*
X3379Y508D01*
X3441Y508D02*
X3479Y508D01*
X3541Y508D02*
X3579Y508D01*
X2342Y507D02*
X2377Y507D01*
X2442Y507D02*
X2477Y507D01*
X2542Y507D02*
X2577Y507D01*
X2642Y507D02*
X2677Y507D01*
X3242Y507D02*
X3277Y507D01*
X3342Y507D02*
X3377Y507D01*
X3442Y507D02*
X3477Y507D01*
X3542Y507D02*
X3577Y507D01*
X2344Y506D02*
X2376Y506D01*
X2444Y506D02*
X2476Y506D01*
X2544Y506D02*
X2576Y506D01*
X2644Y506D02*
X2676Y506D01*
X3244Y506D02*
X3276Y506D01*
X3344Y506D02*
X3376Y506D01*
X3444Y506D02*
X3476Y506D01*
X3544Y506D02*
X3576Y506D01*
X2346Y505D02*
X2374Y505D01*
X2446Y505D02*
X2474Y505D01*
X2546Y505D02*
X2574Y505D01*
X2646Y505D02*
X2674Y505D01*
X3246Y505D02*
X3274Y505D01*
X3346Y505D02*
X3374Y505D01*
X3446Y505D02*
X3474Y505D01*
X3546Y505D02*
X3574Y505D01*
X2348Y504D02*
X2372Y504D01*
X2448Y504D02*
X2472Y504D01*
X2548Y504D02*
X2572Y504D01*
X2648Y504D02*
X2672Y504D01*
X3248Y504D02*
X3272Y504D01*
X3348Y504D02*
X3372Y504D01*
X3448Y504D02*
X3472Y504D01*
X3548Y504D02*
X3572Y504D01*
X2351Y503D02*
X2369Y503D01*
X2451Y503D02*
X2469Y503D01*
X2551Y503D02*
X2569Y503D01*
X2651Y503D02*
X2669Y503D01*
X3251Y503D02*
X3269Y503D01*
X3351Y503D02*
X3369Y503D01*
X3451Y503D02*
X3469Y503D01*
X3551Y503D02*
X3569Y503D01*
X2355Y502D02*
X2364Y502D01*
X2455Y502D02*
X2464Y502D01*
X2555Y502D02*
X2564Y502D01*
X2655Y502D02*
X2664Y502D01*
X3255Y502D02*
X3264Y502D01*
X3355Y502D02*
X3364Y502D01*
X3455Y502D02*
X3464Y502D01*
X3555Y502D02*
X3564Y502D01*
D02*
G04 End of Copper1*
M02*